%TF.GenerationSoftware,KiCad,Pcbnew,9.0.0*%
%TF.CreationDate,2025-03-25T13:14:26-05:00*%
%TF.ProjectId,Armor_Plate,41726d6f-725f-4506-9c61-74652e6b6963,rev?*%
%TF.SameCoordinates,Original*%
%TF.FileFunction,Drillmap*%
%TF.FilePolarity,Positive*%
%FSLAX45Y45*%
G04 Gerber Fmt 4.5, Leading zero omitted, Abs format (unit mm)*
G04 Created by KiCad (PCBNEW 9.0.0) date 2025-03-25 13:14:26*
%MOMM*%
%LPD*%
G01*
G04 APERTURE LIST*
%ADD10C,0.050000*%
%ADD11C,0.200000*%
%ADD12C,0.100000*%
%ADD13C,0.450000*%
G04 APERTURE END LIST*
D10*
X13995000Y-2150000D02*
X13995000Y-12850000D01*
X1995000Y-12850000D02*
X1995000Y-2150000D01*
X13995000Y-12850000D02*
G75*
G02*
X13495000Y-13350000I-500000J0D01*
G01*
X13495000Y-13350000D02*
X2495000Y-13350000D01*
X2495000Y-1650000D02*
X13495000Y-1650000D01*
X1995000Y-2150000D02*
G75*
G02*
X2495000Y-1650000I500000J0D01*
G01*
X2495000Y-13350000D02*
G75*
G02*
X1995000Y-12850000I0J500000D01*
G01*
X13495000Y-1650000D02*
G75*
G02*
X13995000Y-2150000I0J-500000D01*
G01*
D11*
D12*
X7697000Y-9499000D02*
X7787000Y-9589000D01*
X7787000Y-9499000D02*
X7697000Y-9589000D01*
X8197000Y-9499000D02*
X8287000Y-9589000D01*
X8287000Y-9499000D02*
X8197000Y-9589000D01*
D13*
X3470000Y-2275000D02*
G75*
G02*
X3020000Y-2275000I-225000J0D01*
G01*
X3020000Y-2275000D02*
G75*
G02*
X3470000Y-2275000I225000J0D01*
G01*
X3470000Y-12725000D02*
G75*
G02*
X3020000Y-12725000I-225000J0D01*
G01*
X3020000Y-12725000D02*
G75*
G02*
X3470000Y-12725000I225000J0D01*
G01*
X12970000Y-2275000D02*
G75*
G02*
X12520000Y-2275000I-225000J0D01*
G01*
X12520000Y-2275000D02*
G75*
G02*
X12970000Y-2275000I225000J0D01*
G01*
X12970000Y-12725000D02*
G75*
G02*
X12520000Y-12725000I-225000J0D01*
G01*
X12520000Y-12725000D02*
G75*
G02*
X12970000Y-12725000I225000J0D01*
G01*
D11*
X2253277Y-13663984D02*
X2253277Y-13463984D01*
X2253277Y-13463984D02*
X2300896Y-13463984D01*
X2300896Y-13463984D02*
X2329467Y-13473508D01*
X2329467Y-13473508D02*
X2348515Y-13492555D01*
X2348515Y-13492555D02*
X2358039Y-13511603D01*
X2358039Y-13511603D02*
X2367563Y-13549698D01*
X2367563Y-13549698D02*
X2367563Y-13578269D01*
X2367563Y-13578269D02*
X2358039Y-13616365D01*
X2358039Y-13616365D02*
X2348515Y-13635412D01*
X2348515Y-13635412D02*
X2329467Y-13654460D01*
X2329467Y-13654460D02*
X2300896Y-13663984D01*
X2300896Y-13663984D02*
X2253277Y-13663984D01*
X2453277Y-13663984D02*
X2453277Y-13530650D01*
X2453277Y-13568746D02*
X2462801Y-13549698D01*
X2462801Y-13549698D02*
X2472324Y-13540174D01*
X2472324Y-13540174D02*
X2491372Y-13530650D01*
X2491372Y-13530650D02*
X2510420Y-13530650D01*
X2577086Y-13663984D02*
X2577086Y-13530650D01*
X2577086Y-13463984D02*
X2567563Y-13473508D01*
X2567563Y-13473508D02*
X2577086Y-13483031D01*
X2577086Y-13483031D02*
X2586610Y-13473508D01*
X2586610Y-13473508D02*
X2577086Y-13463984D01*
X2577086Y-13463984D02*
X2577086Y-13483031D01*
X2700896Y-13663984D02*
X2681848Y-13654460D01*
X2681848Y-13654460D02*
X2672324Y-13635412D01*
X2672324Y-13635412D02*
X2672324Y-13463984D01*
X2805658Y-13663984D02*
X2786610Y-13654460D01*
X2786610Y-13654460D02*
X2777086Y-13635412D01*
X2777086Y-13635412D02*
X2777086Y-13463984D01*
X3034229Y-13663984D02*
X3034229Y-13463984D01*
X3034229Y-13463984D02*
X3100896Y-13606841D01*
X3100896Y-13606841D02*
X3167562Y-13463984D01*
X3167562Y-13463984D02*
X3167562Y-13663984D01*
X3348515Y-13663984D02*
X3348515Y-13559222D01*
X3348515Y-13559222D02*
X3338991Y-13540174D01*
X3338991Y-13540174D02*
X3319943Y-13530650D01*
X3319943Y-13530650D02*
X3281848Y-13530650D01*
X3281848Y-13530650D02*
X3262801Y-13540174D01*
X3348515Y-13654460D02*
X3329467Y-13663984D01*
X3329467Y-13663984D02*
X3281848Y-13663984D01*
X3281848Y-13663984D02*
X3262801Y-13654460D01*
X3262801Y-13654460D02*
X3253277Y-13635412D01*
X3253277Y-13635412D02*
X3253277Y-13616365D01*
X3253277Y-13616365D02*
X3262801Y-13597317D01*
X3262801Y-13597317D02*
X3281848Y-13587793D01*
X3281848Y-13587793D02*
X3329467Y-13587793D01*
X3329467Y-13587793D02*
X3348515Y-13578269D01*
X3443753Y-13530650D02*
X3443753Y-13730650D01*
X3443753Y-13540174D02*
X3462801Y-13530650D01*
X3462801Y-13530650D02*
X3500896Y-13530650D01*
X3500896Y-13530650D02*
X3519943Y-13540174D01*
X3519943Y-13540174D02*
X3529467Y-13549698D01*
X3529467Y-13549698D02*
X3538991Y-13568746D01*
X3538991Y-13568746D02*
X3538991Y-13625888D01*
X3538991Y-13625888D02*
X3529467Y-13644936D01*
X3529467Y-13644936D02*
X3519943Y-13654460D01*
X3519943Y-13654460D02*
X3500896Y-13663984D01*
X3500896Y-13663984D02*
X3462801Y-13663984D01*
X3462801Y-13663984D02*
X3443753Y-13654460D01*
X3624705Y-13644936D02*
X3634229Y-13654460D01*
X3634229Y-13654460D02*
X3624705Y-13663984D01*
X3624705Y-13663984D02*
X3615182Y-13654460D01*
X3615182Y-13654460D02*
X3624705Y-13644936D01*
X3624705Y-13644936D02*
X3624705Y-13663984D01*
X3624705Y-13540174D02*
X3634229Y-13549698D01*
X3634229Y-13549698D02*
X3624705Y-13559222D01*
X3624705Y-13559222D02*
X3615182Y-13549698D01*
X3615182Y-13549698D02*
X3624705Y-13540174D01*
X3624705Y-13540174D02*
X3624705Y-13559222D01*
D12*
X1902500Y-13947500D02*
X1992500Y-14037500D01*
X1992500Y-13947500D02*
X1902500Y-14037500D01*
D11*
X2291372Y-13883984D02*
X2310420Y-13883984D01*
X2310420Y-13883984D02*
X2329467Y-13893508D01*
X2329467Y-13893508D02*
X2338991Y-13903031D01*
X2338991Y-13903031D02*
X2348515Y-13922079D01*
X2348515Y-13922079D02*
X2358039Y-13960174D01*
X2358039Y-13960174D02*
X2358039Y-14007793D01*
X2358039Y-14007793D02*
X2348515Y-14045888D01*
X2348515Y-14045888D02*
X2338991Y-14064936D01*
X2338991Y-14064936D02*
X2329467Y-14074460D01*
X2329467Y-14074460D02*
X2310420Y-14083984D01*
X2310420Y-14083984D02*
X2291372Y-14083984D01*
X2291372Y-14083984D02*
X2272324Y-14074460D01*
X2272324Y-14074460D02*
X2262801Y-14064936D01*
X2262801Y-14064936D02*
X2253277Y-14045888D01*
X2253277Y-14045888D02*
X2243753Y-14007793D01*
X2243753Y-14007793D02*
X2243753Y-13960174D01*
X2243753Y-13960174D02*
X2253277Y-13922079D01*
X2253277Y-13922079D02*
X2262801Y-13903031D01*
X2262801Y-13903031D02*
X2272324Y-13893508D01*
X2272324Y-13893508D02*
X2291372Y-13883984D01*
X2443753Y-14064936D02*
X2453277Y-14074460D01*
X2453277Y-14074460D02*
X2443753Y-14083984D01*
X2443753Y-14083984D02*
X2434229Y-14074460D01*
X2434229Y-14074460D02*
X2443753Y-14064936D01*
X2443753Y-14064936D02*
X2443753Y-14083984D01*
X2548515Y-14083984D02*
X2586610Y-14083984D01*
X2586610Y-14083984D02*
X2605658Y-14074460D01*
X2605658Y-14074460D02*
X2615182Y-14064936D01*
X2615182Y-14064936D02*
X2634229Y-14036365D01*
X2634229Y-14036365D02*
X2643753Y-13998269D01*
X2643753Y-13998269D02*
X2643753Y-13922079D01*
X2643753Y-13922079D02*
X2634229Y-13903031D01*
X2634229Y-13903031D02*
X2624705Y-13893508D01*
X2624705Y-13893508D02*
X2605658Y-13883984D01*
X2605658Y-13883984D02*
X2567563Y-13883984D01*
X2567563Y-13883984D02*
X2548515Y-13893508D01*
X2548515Y-13893508D02*
X2538991Y-13903031D01*
X2538991Y-13903031D02*
X2529467Y-13922079D01*
X2529467Y-13922079D02*
X2529467Y-13969698D01*
X2529467Y-13969698D02*
X2538991Y-13988746D01*
X2538991Y-13988746D02*
X2548515Y-13998269D01*
X2548515Y-13998269D02*
X2567563Y-14007793D01*
X2567563Y-14007793D02*
X2605658Y-14007793D01*
X2605658Y-14007793D02*
X2624705Y-13998269D01*
X2624705Y-13998269D02*
X2634229Y-13988746D01*
X2634229Y-13988746D02*
X2643753Y-13969698D01*
X2767563Y-13883984D02*
X2786610Y-13883984D01*
X2786610Y-13883984D02*
X2805658Y-13893508D01*
X2805658Y-13893508D02*
X2815182Y-13903031D01*
X2815182Y-13903031D02*
X2824705Y-13922079D01*
X2824705Y-13922079D02*
X2834229Y-13960174D01*
X2834229Y-13960174D02*
X2834229Y-14007793D01*
X2834229Y-14007793D02*
X2824705Y-14045888D01*
X2824705Y-14045888D02*
X2815182Y-14064936D01*
X2815182Y-14064936D02*
X2805658Y-14074460D01*
X2805658Y-14074460D02*
X2786610Y-14083984D01*
X2786610Y-14083984D02*
X2767563Y-14083984D01*
X2767563Y-14083984D02*
X2748515Y-14074460D01*
X2748515Y-14074460D02*
X2738991Y-14064936D01*
X2738991Y-14064936D02*
X2729467Y-14045888D01*
X2729467Y-14045888D02*
X2719944Y-14007793D01*
X2719944Y-14007793D02*
X2719944Y-13960174D01*
X2719944Y-13960174D02*
X2729467Y-13922079D01*
X2729467Y-13922079D02*
X2738991Y-13903031D01*
X2738991Y-13903031D02*
X2748515Y-13893508D01*
X2748515Y-13893508D02*
X2767563Y-13883984D01*
X2958039Y-13883984D02*
X2977086Y-13883984D01*
X2977086Y-13883984D02*
X2996134Y-13893508D01*
X2996134Y-13893508D02*
X3005658Y-13903031D01*
X3005658Y-13903031D02*
X3015182Y-13922079D01*
X3015182Y-13922079D02*
X3024705Y-13960174D01*
X3024705Y-13960174D02*
X3024705Y-14007793D01*
X3024705Y-14007793D02*
X3015182Y-14045888D01*
X3015182Y-14045888D02*
X3005658Y-14064936D01*
X3005658Y-14064936D02*
X2996134Y-14074460D01*
X2996134Y-14074460D02*
X2977086Y-14083984D01*
X2977086Y-14083984D02*
X2958039Y-14083984D01*
X2958039Y-14083984D02*
X2938991Y-14074460D01*
X2938991Y-14074460D02*
X2929467Y-14064936D01*
X2929467Y-14064936D02*
X2919943Y-14045888D01*
X2919943Y-14045888D02*
X2910420Y-14007793D01*
X2910420Y-14007793D02*
X2910420Y-13960174D01*
X2910420Y-13960174D02*
X2919943Y-13922079D01*
X2919943Y-13922079D02*
X2929467Y-13903031D01*
X2929467Y-13903031D02*
X2938991Y-13893508D01*
X2938991Y-13893508D02*
X2958039Y-13883984D01*
X3110420Y-14083984D02*
X3110420Y-13950650D01*
X3110420Y-13969698D02*
X3119943Y-13960174D01*
X3119943Y-13960174D02*
X3138991Y-13950650D01*
X3138991Y-13950650D02*
X3167563Y-13950650D01*
X3167563Y-13950650D02*
X3186610Y-13960174D01*
X3186610Y-13960174D02*
X3196134Y-13979222D01*
X3196134Y-13979222D02*
X3196134Y-14083984D01*
X3196134Y-13979222D02*
X3205658Y-13960174D01*
X3205658Y-13960174D02*
X3224705Y-13950650D01*
X3224705Y-13950650D02*
X3253277Y-13950650D01*
X3253277Y-13950650D02*
X3272324Y-13960174D01*
X3272324Y-13960174D02*
X3281848Y-13979222D01*
X3281848Y-13979222D02*
X3281848Y-14083984D01*
X3377086Y-14083984D02*
X3377086Y-13950650D01*
X3377086Y-13969698D02*
X3386610Y-13960174D01*
X3386610Y-13960174D02*
X3405658Y-13950650D01*
X3405658Y-13950650D02*
X3434229Y-13950650D01*
X3434229Y-13950650D02*
X3453277Y-13960174D01*
X3453277Y-13960174D02*
X3462801Y-13979222D01*
X3462801Y-13979222D02*
X3462801Y-14083984D01*
X3462801Y-13979222D02*
X3472324Y-13960174D01*
X3472324Y-13960174D02*
X3491372Y-13950650D01*
X3491372Y-13950650D02*
X3519943Y-13950650D01*
X3519943Y-13950650D02*
X3538991Y-13960174D01*
X3538991Y-13960174D02*
X3548515Y-13979222D01*
X3548515Y-13979222D02*
X3548515Y-14083984D01*
X3938991Y-13874460D02*
X3767563Y-14131603D01*
X4196134Y-13883984D02*
X4215182Y-13883984D01*
X4215182Y-13883984D02*
X4234229Y-13893508D01*
X4234229Y-13893508D02*
X4243753Y-13903031D01*
X4243753Y-13903031D02*
X4253277Y-13922079D01*
X4253277Y-13922079D02*
X4262801Y-13960174D01*
X4262801Y-13960174D02*
X4262801Y-14007793D01*
X4262801Y-14007793D02*
X4253277Y-14045888D01*
X4253277Y-14045888D02*
X4243753Y-14064936D01*
X4243753Y-14064936D02*
X4234229Y-14074460D01*
X4234229Y-14074460D02*
X4215182Y-14083984D01*
X4215182Y-14083984D02*
X4196134Y-14083984D01*
X4196134Y-14083984D02*
X4177086Y-14074460D01*
X4177086Y-14074460D02*
X4167563Y-14064936D01*
X4167563Y-14064936D02*
X4158039Y-14045888D01*
X4158039Y-14045888D02*
X4148515Y-14007793D01*
X4148515Y-14007793D02*
X4148515Y-13960174D01*
X4148515Y-13960174D02*
X4158039Y-13922079D01*
X4158039Y-13922079D02*
X4167563Y-13903031D01*
X4167563Y-13903031D02*
X4177086Y-13893508D01*
X4177086Y-13893508D02*
X4196134Y-13883984D01*
X4348515Y-14064936D02*
X4358039Y-14074460D01*
X4358039Y-14074460D02*
X4348515Y-14083984D01*
X4348515Y-14083984D02*
X4338991Y-14074460D01*
X4338991Y-14074460D02*
X4348515Y-14064936D01*
X4348515Y-14064936D02*
X4348515Y-14083984D01*
X4481848Y-13883984D02*
X4500896Y-13883984D01*
X4500896Y-13883984D02*
X4519944Y-13893508D01*
X4519944Y-13893508D02*
X4529468Y-13903031D01*
X4529468Y-13903031D02*
X4538991Y-13922079D01*
X4538991Y-13922079D02*
X4548515Y-13960174D01*
X4548515Y-13960174D02*
X4548515Y-14007793D01*
X4548515Y-14007793D02*
X4538991Y-14045888D01*
X4538991Y-14045888D02*
X4529468Y-14064936D01*
X4529468Y-14064936D02*
X4519944Y-14074460D01*
X4519944Y-14074460D02*
X4500896Y-14083984D01*
X4500896Y-14083984D02*
X4481848Y-14083984D01*
X4481848Y-14083984D02*
X4462801Y-14074460D01*
X4462801Y-14074460D02*
X4453277Y-14064936D01*
X4453277Y-14064936D02*
X4443753Y-14045888D01*
X4443753Y-14045888D02*
X4434229Y-14007793D01*
X4434229Y-14007793D02*
X4434229Y-13960174D01*
X4434229Y-13960174D02*
X4443753Y-13922079D01*
X4443753Y-13922079D02*
X4453277Y-13903031D01*
X4453277Y-13903031D02*
X4462801Y-13893508D01*
X4462801Y-13893508D02*
X4481848Y-13883984D01*
X4615182Y-13883984D02*
X4738991Y-13883984D01*
X4738991Y-13883984D02*
X4672325Y-13960174D01*
X4672325Y-13960174D02*
X4700896Y-13960174D01*
X4700896Y-13960174D02*
X4719944Y-13969698D01*
X4719944Y-13969698D02*
X4729468Y-13979222D01*
X4729468Y-13979222D02*
X4738991Y-13998269D01*
X4738991Y-13998269D02*
X4738991Y-14045888D01*
X4738991Y-14045888D02*
X4729468Y-14064936D01*
X4729468Y-14064936D02*
X4719944Y-14074460D01*
X4719944Y-14074460D02*
X4700896Y-14083984D01*
X4700896Y-14083984D02*
X4643753Y-14083984D01*
X4643753Y-14083984D02*
X4624706Y-14074460D01*
X4624706Y-14074460D02*
X4615182Y-14064936D01*
X4919944Y-13883984D02*
X4824706Y-13883984D01*
X4824706Y-13883984D02*
X4815182Y-13979222D01*
X4815182Y-13979222D02*
X4824706Y-13969698D01*
X4824706Y-13969698D02*
X4843753Y-13960174D01*
X4843753Y-13960174D02*
X4891372Y-13960174D01*
X4891372Y-13960174D02*
X4910420Y-13969698D01*
X4910420Y-13969698D02*
X4919944Y-13979222D01*
X4919944Y-13979222D02*
X4929468Y-13998269D01*
X4929468Y-13998269D02*
X4929468Y-14045888D01*
X4929468Y-14045888D02*
X4919944Y-14064936D01*
X4919944Y-14064936D02*
X4910420Y-14074460D01*
X4910420Y-14074460D02*
X4891372Y-14083984D01*
X4891372Y-14083984D02*
X4843753Y-14083984D01*
X4843753Y-14083984D02*
X4824706Y-14074460D01*
X4824706Y-14074460D02*
X4815182Y-14064936D01*
X5100896Y-13950650D02*
X5100896Y-14083984D01*
X5053277Y-13874460D02*
X5005658Y-14017317D01*
X5005658Y-14017317D02*
X5129468Y-14017317D01*
X5196134Y-13883984D02*
X5196134Y-13922079D01*
X5272325Y-13883984D02*
X5272325Y-13922079D01*
X5567563Y-14160174D02*
X5558039Y-14150650D01*
X5558039Y-14150650D02*
X5538991Y-14122079D01*
X5538991Y-14122079D02*
X5529468Y-14103031D01*
X5529468Y-14103031D02*
X5519944Y-14074460D01*
X5519944Y-14074460D02*
X5510420Y-14026841D01*
X5510420Y-14026841D02*
X5510420Y-13988746D01*
X5510420Y-13988746D02*
X5519944Y-13941127D01*
X5519944Y-13941127D02*
X5529468Y-13912555D01*
X5529468Y-13912555D02*
X5538991Y-13893508D01*
X5538991Y-13893508D02*
X5558039Y-13864936D01*
X5558039Y-13864936D02*
X5567563Y-13855412D01*
X5634229Y-13903031D02*
X5643753Y-13893508D01*
X5643753Y-13893508D02*
X5662801Y-13883984D01*
X5662801Y-13883984D02*
X5710420Y-13883984D01*
X5710420Y-13883984D02*
X5729468Y-13893508D01*
X5729468Y-13893508D02*
X5738991Y-13903031D01*
X5738991Y-13903031D02*
X5748515Y-13922079D01*
X5748515Y-13922079D02*
X5748515Y-13941127D01*
X5748515Y-13941127D02*
X5738991Y-13969698D01*
X5738991Y-13969698D02*
X5624706Y-14083984D01*
X5624706Y-14083984D02*
X5748515Y-14083984D01*
X5986610Y-14083984D02*
X5986610Y-13883984D01*
X6072325Y-14083984D02*
X6072325Y-13979222D01*
X6072325Y-13979222D02*
X6062801Y-13960174D01*
X6062801Y-13960174D02*
X6043753Y-13950650D01*
X6043753Y-13950650D02*
X6015182Y-13950650D01*
X6015182Y-13950650D02*
X5996134Y-13960174D01*
X5996134Y-13960174D02*
X5986610Y-13969698D01*
X6196134Y-14083984D02*
X6177087Y-14074460D01*
X6177087Y-14074460D02*
X6167563Y-14064936D01*
X6167563Y-14064936D02*
X6158039Y-14045888D01*
X6158039Y-14045888D02*
X6158039Y-13988746D01*
X6158039Y-13988746D02*
X6167563Y-13969698D01*
X6167563Y-13969698D02*
X6177087Y-13960174D01*
X6177087Y-13960174D02*
X6196134Y-13950650D01*
X6196134Y-13950650D02*
X6224706Y-13950650D01*
X6224706Y-13950650D02*
X6243753Y-13960174D01*
X6243753Y-13960174D02*
X6253277Y-13969698D01*
X6253277Y-13969698D02*
X6262801Y-13988746D01*
X6262801Y-13988746D02*
X6262801Y-14045888D01*
X6262801Y-14045888D02*
X6253277Y-14064936D01*
X6253277Y-14064936D02*
X6243753Y-14074460D01*
X6243753Y-14074460D02*
X6224706Y-14083984D01*
X6224706Y-14083984D02*
X6196134Y-14083984D01*
X6377087Y-14083984D02*
X6358039Y-14074460D01*
X6358039Y-14074460D02*
X6348515Y-14055412D01*
X6348515Y-14055412D02*
X6348515Y-13883984D01*
X6529468Y-14074460D02*
X6510420Y-14083984D01*
X6510420Y-14083984D02*
X6472325Y-14083984D01*
X6472325Y-14083984D02*
X6453277Y-14074460D01*
X6453277Y-14074460D02*
X6443753Y-14055412D01*
X6443753Y-14055412D02*
X6443753Y-13979222D01*
X6443753Y-13979222D02*
X6453277Y-13960174D01*
X6453277Y-13960174D02*
X6472325Y-13950650D01*
X6472325Y-13950650D02*
X6510420Y-13950650D01*
X6510420Y-13950650D02*
X6529468Y-13960174D01*
X6529468Y-13960174D02*
X6538991Y-13979222D01*
X6538991Y-13979222D02*
X6538991Y-13998269D01*
X6538991Y-13998269D02*
X6443753Y-14017317D01*
X6615182Y-14074460D02*
X6634230Y-14083984D01*
X6634230Y-14083984D02*
X6672325Y-14083984D01*
X6672325Y-14083984D02*
X6691372Y-14074460D01*
X6691372Y-14074460D02*
X6700896Y-14055412D01*
X6700896Y-14055412D02*
X6700896Y-14045888D01*
X6700896Y-14045888D02*
X6691372Y-14026841D01*
X6691372Y-14026841D02*
X6672325Y-14017317D01*
X6672325Y-14017317D02*
X6643753Y-14017317D01*
X6643753Y-14017317D02*
X6624706Y-14007793D01*
X6624706Y-14007793D02*
X6615182Y-13988746D01*
X6615182Y-13988746D02*
X6615182Y-13979222D01*
X6615182Y-13979222D02*
X6624706Y-13960174D01*
X6624706Y-13960174D02*
X6643753Y-13950650D01*
X6643753Y-13950650D02*
X6672325Y-13950650D01*
X6672325Y-13950650D02*
X6691372Y-13960174D01*
X6767563Y-14160174D02*
X6777087Y-14150650D01*
X6777087Y-14150650D02*
X6796134Y-14122079D01*
X6796134Y-14122079D02*
X6805658Y-14103031D01*
X6805658Y-14103031D02*
X6815182Y-14074460D01*
X6815182Y-14074460D02*
X6824706Y-14026841D01*
X6824706Y-14026841D02*
X6824706Y-13988746D01*
X6824706Y-13988746D02*
X6815182Y-13941127D01*
X6815182Y-13941127D02*
X6805658Y-13912555D01*
X6805658Y-13912555D02*
X6796134Y-13893508D01*
X6796134Y-13893508D02*
X6777087Y-13864936D01*
X6777087Y-13864936D02*
X6767563Y-13855412D01*
X7129468Y-14160174D02*
X7119944Y-14150650D01*
X7119944Y-14150650D02*
X7100896Y-14122079D01*
X7100896Y-14122079D02*
X7091372Y-14103031D01*
X7091372Y-14103031D02*
X7081849Y-14074460D01*
X7081849Y-14074460D02*
X7072325Y-14026841D01*
X7072325Y-14026841D02*
X7072325Y-13988746D01*
X7072325Y-13988746D02*
X7081849Y-13941127D01*
X7081849Y-13941127D02*
X7091372Y-13912555D01*
X7091372Y-13912555D02*
X7100896Y-13893508D01*
X7100896Y-13893508D02*
X7119944Y-13864936D01*
X7119944Y-13864936D02*
X7129468Y-13855412D01*
X7205658Y-13950650D02*
X7205658Y-14083984D01*
X7205658Y-13969698D02*
X7215182Y-13960174D01*
X7215182Y-13960174D02*
X7234230Y-13950650D01*
X7234230Y-13950650D02*
X7262801Y-13950650D01*
X7262801Y-13950650D02*
X7281849Y-13960174D01*
X7281849Y-13960174D02*
X7291372Y-13979222D01*
X7291372Y-13979222D02*
X7291372Y-14083984D01*
X7415182Y-14083984D02*
X7396134Y-14074460D01*
X7396134Y-14074460D02*
X7386611Y-14064936D01*
X7386611Y-14064936D02*
X7377087Y-14045888D01*
X7377087Y-14045888D02*
X7377087Y-13988746D01*
X7377087Y-13988746D02*
X7386611Y-13969698D01*
X7386611Y-13969698D02*
X7396134Y-13960174D01*
X7396134Y-13960174D02*
X7415182Y-13950650D01*
X7415182Y-13950650D02*
X7443753Y-13950650D01*
X7443753Y-13950650D02*
X7462801Y-13960174D01*
X7462801Y-13960174D02*
X7472325Y-13969698D01*
X7472325Y-13969698D02*
X7481849Y-13988746D01*
X7481849Y-13988746D02*
X7481849Y-14045888D01*
X7481849Y-14045888D02*
X7472325Y-14064936D01*
X7472325Y-14064936D02*
X7462801Y-14074460D01*
X7462801Y-14074460D02*
X7443753Y-14083984D01*
X7443753Y-14083984D02*
X7415182Y-14083984D01*
X7538992Y-13950650D02*
X7615182Y-13950650D01*
X7567563Y-13883984D02*
X7567563Y-14055412D01*
X7567563Y-14055412D02*
X7577087Y-14074460D01*
X7577087Y-14074460D02*
X7596134Y-14083984D01*
X7596134Y-14083984D02*
X7615182Y-14083984D01*
X7834230Y-13950650D02*
X7834230Y-14150650D01*
X7834230Y-13960174D02*
X7853277Y-13950650D01*
X7853277Y-13950650D02*
X7891373Y-13950650D01*
X7891373Y-13950650D02*
X7910420Y-13960174D01*
X7910420Y-13960174D02*
X7919944Y-13969698D01*
X7919944Y-13969698D02*
X7929468Y-13988746D01*
X7929468Y-13988746D02*
X7929468Y-14045888D01*
X7929468Y-14045888D02*
X7919944Y-14064936D01*
X7919944Y-14064936D02*
X7910420Y-14074460D01*
X7910420Y-14074460D02*
X7891373Y-14083984D01*
X7891373Y-14083984D02*
X7853277Y-14083984D01*
X7853277Y-14083984D02*
X7834230Y-14074460D01*
X8043753Y-14083984D02*
X8024706Y-14074460D01*
X8024706Y-14074460D02*
X8015182Y-14055412D01*
X8015182Y-14055412D02*
X8015182Y-13883984D01*
X8205658Y-14083984D02*
X8205658Y-13979222D01*
X8205658Y-13979222D02*
X8196134Y-13960174D01*
X8196134Y-13960174D02*
X8177087Y-13950650D01*
X8177087Y-13950650D02*
X8138992Y-13950650D01*
X8138992Y-13950650D02*
X8119944Y-13960174D01*
X8205658Y-14074460D02*
X8186611Y-14083984D01*
X8186611Y-14083984D02*
X8138992Y-14083984D01*
X8138992Y-14083984D02*
X8119944Y-14074460D01*
X8119944Y-14074460D02*
X8110420Y-14055412D01*
X8110420Y-14055412D02*
X8110420Y-14036365D01*
X8110420Y-14036365D02*
X8119944Y-14017317D01*
X8119944Y-14017317D02*
X8138992Y-14007793D01*
X8138992Y-14007793D02*
X8186611Y-14007793D01*
X8186611Y-14007793D02*
X8205658Y-13998269D01*
X8272325Y-13950650D02*
X8348515Y-13950650D01*
X8300896Y-13883984D02*
X8300896Y-14055412D01*
X8300896Y-14055412D02*
X8310420Y-14074460D01*
X8310420Y-14074460D02*
X8329468Y-14083984D01*
X8329468Y-14083984D02*
X8348515Y-14083984D01*
X8491373Y-14074460D02*
X8472325Y-14083984D01*
X8472325Y-14083984D02*
X8434230Y-14083984D01*
X8434230Y-14083984D02*
X8415182Y-14074460D01*
X8415182Y-14074460D02*
X8405658Y-14055412D01*
X8405658Y-14055412D02*
X8405658Y-13979222D01*
X8405658Y-13979222D02*
X8415182Y-13960174D01*
X8415182Y-13960174D02*
X8434230Y-13950650D01*
X8434230Y-13950650D02*
X8472325Y-13950650D01*
X8472325Y-13950650D02*
X8491373Y-13960174D01*
X8491373Y-13960174D02*
X8500896Y-13979222D01*
X8500896Y-13979222D02*
X8500896Y-13998269D01*
X8500896Y-13998269D02*
X8405658Y-14017317D01*
X8672325Y-14083984D02*
X8672325Y-13883984D01*
X8672325Y-14074460D02*
X8653277Y-14083984D01*
X8653277Y-14083984D02*
X8615182Y-14083984D01*
X8615182Y-14083984D02*
X8596135Y-14074460D01*
X8596135Y-14074460D02*
X8586611Y-14064936D01*
X8586611Y-14064936D02*
X8577087Y-14045888D01*
X8577087Y-14045888D02*
X8577087Y-13988746D01*
X8577087Y-13988746D02*
X8586611Y-13969698D01*
X8586611Y-13969698D02*
X8596135Y-13960174D01*
X8596135Y-13960174D02*
X8615182Y-13950650D01*
X8615182Y-13950650D02*
X8653277Y-13950650D01*
X8653277Y-13950650D02*
X8672325Y-13960174D01*
X8748516Y-14160174D02*
X8758039Y-14150650D01*
X8758039Y-14150650D02*
X8777087Y-14122079D01*
X8777087Y-14122079D02*
X8786611Y-14103031D01*
X8786611Y-14103031D02*
X8796135Y-14074460D01*
X8796135Y-14074460D02*
X8805658Y-14026841D01*
X8805658Y-14026841D02*
X8805658Y-13988746D01*
X8805658Y-13988746D02*
X8796135Y-13941127D01*
X8796135Y-13941127D02*
X8786611Y-13912555D01*
X8786611Y-13912555D02*
X8777087Y-13893508D01*
X8777087Y-13893508D02*
X8758039Y-13864936D01*
X8758039Y-13864936D02*
X8748516Y-13855412D01*
X1992500Y-14256500D02*
G75*
G02*
X1792500Y-14256500I-100000J0D01*
G01*
X1792500Y-14256500D02*
G75*
G02*
X1992500Y-14256500I100000J0D01*
G01*
X2338991Y-14214650D02*
X2338991Y-14347984D01*
X2291372Y-14138460D02*
X2243753Y-14281317D01*
X2243753Y-14281317D02*
X2367563Y-14281317D01*
X2443753Y-14328936D02*
X2453277Y-14338460D01*
X2453277Y-14338460D02*
X2443753Y-14347984D01*
X2443753Y-14347984D02*
X2434229Y-14338460D01*
X2434229Y-14338460D02*
X2443753Y-14328936D01*
X2443753Y-14328936D02*
X2443753Y-14347984D01*
X2634229Y-14147984D02*
X2538991Y-14147984D01*
X2538991Y-14147984D02*
X2529467Y-14243222D01*
X2529467Y-14243222D02*
X2538991Y-14233698D01*
X2538991Y-14233698D02*
X2558039Y-14224174D01*
X2558039Y-14224174D02*
X2605658Y-14224174D01*
X2605658Y-14224174D02*
X2624705Y-14233698D01*
X2624705Y-14233698D02*
X2634229Y-14243222D01*
X2634229Y-14243222D02*
X2643753Y-14262269D01*
X2643753Y-14262269D02*
X2643753Y-14309888D01*
X2643753Y-14309888D02*
X2634229Y-14328936D01*
X2634229Y-14328936D02*
X2624705Y-14338460D01*
X2624705Y-14338460D02*
X2605658Y-14347984D01*
X2605658Y-14347984D02*
X2558039Y-14347984D01*
X2558039Y-14347984D02*
X2538991Y-14338460D01*
X2538991Y-14338460D02*
X2529467Y-14328936D01*
X2767563Y-14147984D02*
X2786610Y-14147984D01*
X2786610Y-14147984D02*
X2805658Y-14157508D01*
X2805658Y-14157508D02*
X2815182Y-14167031D01*
X2815182Y-14167031D02*
X2824705Y-14186079D01*
X2824705Y-14186079D02*
X2834229Y-14224174D01*
X2834229Y-14224174D02*
X2834229Y-14271793D01*
X2834229Y-14271793D02*
X2824705Y-14309888D01*
X2824705Y-14309888D02*
X2815182Y-14328936D01*
X2815182Y-14328936D02*
X2805658Y-14338460D01*
X2805658Y-14338460D02*
X2786610Y-14347984D01*
X2786610Y-14347984D02*
X2767563Y-14347984D01*
X2767563Y-14347984D02*
X2748515Y-14338460D01*
X2748515Y-14338460D02*
X2738991Y-14328936D01*
X2738991Y-14328936D02*
X2729467Y-14309888D01*
X2729467Y-14309888D02*
X2719944Y-14271793D01*
X2719944Y-14271793D02*
X2719944Y-14224174D01*
X2719944Y-14224174D02*
X2729467Y-14186079D01*
X2729467Y-14186079D02*
X2738991Y-14167031D01*
X2738991Y-14167031D02*
X2748515Y-14157508D01*
X2748515Y-14157508D02*
X2767563Y-14147984D01*
X2958039Y-14147984D02*
X2977086Y-14147984D01*
X2977086Y-14147984D02*
X2996134Y-14157508D01*
X2996134Y-14157508D02*
X3005658Y-14167031D01*
X3005658Y-14167031D02*
X3015182Y-14186079D01*
X3015182Y-14186079D02*
X3024705Y-14224174D01*
X3024705Y-14224174D02*
X3024705Y-14271793D01*
X3024705Y-14271793D02*
X3015182Y-14309888D01*
X3015182Y-14309888D02*
X3005658Y-14328936D01*
X3005658Y-14328936D02*
X2996134Y-14338460D01*
X2996134Y-14338460D02*
X2977086Y-14347984D01*
X2977086Y-14347984D02*
X2958039Y-14347984D01*
X2958039Y-14347984D02*
X2938991Y-14338460D01*
X2938991Y-14338460D02*
X2929467Y-14328936D01*
X2929467Y-14328936D02*
X2919943Y-14309888D01*
X2919943Y-14309888D02*
X2910420Y-14271793D01*
X2910420Y-14271793D02*
X2910420Y-14224174D01*
X2910420Y-14224174D02*
X2919943Y-14186079D01*
X2919943Y-14186079D02*
X2929467Y-14167031D01*
X2929467Y-14167031D02*
X2938991Y-14157508D01*
X2938991Y-14157508D02*
X2958039Y-14147984D01*
X3110420Y-14347984D02*
X3110420Y-14214650D01*
X3110420Y-14233698D02*
X3119943Y-14224174D01*
X3119943Y-14224174D02*
X3138991Y-14214650D01*
X3138991Y-14214650D02*
X3167563Y-14214650D01*
X3167563Y-14214650D02*
X3186610Y-14224174D01*
X3186610Y-14224174D02*
X3196134Y-14243222D01*
X3196134Y-14243222D02*
X3196134Y-14347984D01*
X3196134Y-14243222D02*
X3205658Y-14224174D01*
X3205658Y-14224174D02*
X3224705Y-14214650D01*
X3224705Y-14214650D02*
X3253277Y-14214650D01*
X3253277Y-14214650D02*
X3272324Y-14224174D01*
X3272324Y-14224174D02*
X3281848Y-14243222D01*
X3281848Y-14243222D02*
X3281848Y-14347984D01*
X3377086Y-14347984D02*
X3377086Y-14214650D01*
X3377086Y-14233698D02*
X3386610Y-14224174D01*
X3386610Y-14224174D02*
X3405658Y-14214650D01*
X3405658Y-14214650D02*
X3434229Y-14214650D01*
X3434229Y-14214650D02*
X3453277Y-14224174D01*
X3453277Y-14224174D02*
X3462801Y-14243222D01*
X3462801Y-14243222D02*
X3462801Y-14347984D01*
X3462801Y-14243222D02*
X3472324Y-14224174D01*
X3472324Y-14224174D02*
X3491372Y-14214650D01*
X3491372Y-14214650D02*
X3519943Y-14214650D01*
X3519943Y-14214650D02*
X3538991Y-14224174D01*
X3538991Y-14224174D02*
X3548515Y-14243222D01*
X3548515Y-14243222D02*
X3548515Y-14347984D01*
X3938991Y-14138460D02*
X3767563Y-14395603D01*
X4196134Y-14147984D02*
X4215182Y-14147984D01*
X4215182Y-14147984D02*
X4234229Y-14157508D01*
X4234229Y-14157508D02*
X4243753Y-14167031D01*
X4243753Y-14167031D02*
X4253277Y-14186079D01*
X4253277Y-14186079D02*
X4262801Y-14224174D01*
X4262801Y-14224174D02*
X4262801Y-14271793D01*
X4262801Y-14271793D02*
X4253277Y-14309888D01*
X4253277Y-14309888D02*
X4243753Y-14328936D01*
X4243753Y-14328936D02*
X4234229Y-14338460D01*
X4234229Y-14338460D02*
X4215182Y-14347984D01*
X4215182Y-14347984D02*
X4196134Y-14347984D01*
X4196134Y-14347984D02*
X4177086Y-14338460D01*
X4177086Y-14338460D02*
X4167563Y-14328936D01*
X4167563Y-14328936D02*
X4158039Y-14309888D01*
X4158039Y-14309888D02*
X4148515Y-14271793D01*
X4148515Y-14271793D02*
X4148515Y-14224174D01*
X4148515Y-14224174D02*
X4158039Y-14186079D01*
X4158039Y-14186079D02*
X4167563Y-14167031D01*
X4167563Y-14167031D02*
X4177086Y-14157508D01*
X4177086Y-14157508D02*
X4196134Y-14147984D01*
X4348515Y-14328936D02*
X4358039Y-14338460D01*
X4358039Y-14338460D02*
X4348515Y-14347984D01*
X4348515Y-14347984D02*
X4338991Y-14338460D01*
X4338991Y-14338460D02*
X4348515Y-14328936D01*
X4348515Y-14328936D02*
X4348515Y-14347984D01*
X4548515Y-14347984D02*
X4434229Y-14347984D01*
X4491372Y-14347984D02*
X4491372Y-14147984D01*
X4491372Y-14147984D02*
X4472325Y-14176555D01*
X4472325Y-14176555D02*
X4453277Y-14195603D01*
X4453277Y-14195603D02*
X4434229Y-14205127D01*
X4615182Y-14147984D02*
X4748515Y-14147984D01*
X4748515Y-14147984D02*
X4662801Y-14347984D01*
X4805658Y-14147984D02*
X4938991Y-14147984D01*
X4938991Y-14147984D02*
X4853277Y-14347984D01*
X5005658Y-14167031D02*
X5015182Y-14157508D01*
X5015182Y-14157508D02*
X5034229Y-14147984D01*
X5034229Y-14147984D02*
X5081849Y-14147984D01*
X5081849Y-14147984D02*
X5100896Y-14157508D01*
X5100896Y-14157508D02*
X5110420Y-14167031D01*
X5110420Y-14167031D02*
X5119944Y-14186079D01*
X5119944Y-14186079D02*
X5119944Y-14205127D01*
X5119944Y-14205127D02*
X5110420Y-14233698D01*
X5110420Y-14233698D02*
X4996134Y-14347984D01*
X4996134Y-14347984D02*
X5119944Y-14347984D01*
X5196134Y-14147984D02*
X5196134Y-14186079D01*
X5272325Y-14147984D02*
X5272325Y-14186079D01*
X5567563Y-14424174D02*
X5558039Y-14414650D01*
X5558039Y-14414650D02*
X5538991Y-14386079D01*
X5538991Y-14386079D02*
X5529468Y-14367031D01*
X5529468Y-14367031D02*
X5519944Y-14338460D01*
X5519944Y-14338460D02*
X5510420Y-14290841D01*
X5510420Y-14290841D02*
X5510420Y-14252746D01*
X5510420Y-14252746D02*
X5519944Y-14205127D01*
X5519944Y-14205127D02*
X5529468Y-14176555D01*
X5529468Y-14176555D02*
X5538991Y-14157508D01*
X5538991Y-14157508D02*
X5558039Y-14128936D01*
X5558039Y-14128936D02*
X5567563Y-14119412D01*
X5729468Y-14214650D02*
X5729468Y-14347984D01*
X5681848Y-14138460D02*
X5634229Y-14281317D01*
X5634229Y-14281317D02*
X5758039Y-14281317D01*
X5986610Y-14347984D02*
X5986610Y-14147984D01*
X6072325Y-14347984D02*
X6072325Y-14243222D01*
X6072325Y-14243222D02*
X6062801Y-14224174D01*
X6062801Y-14224174D02*
X6043753Y-14214650D01*
X6043753Y-14214650D02*
X6015182Y-14214650D01*
X6015182Y-14214650D02*
X5996134Y-14224174D01*
X5996134Y-14224174D02*
X5986610Y-14233698D01*
X6196134Y-14347984D02*
X6177087Y-14338460D01*
X6177087Y-14338460D02*
X6167563Y-14328936D01*
X6167563Y-14328936D02*
X6158039Y-14309888D01*
X6158039Y-14309888D02*
X6158039Y-14252746D01*
X6158039Y-14252746D02*
X6167563Y-14233698D01*
X6167563Y-14233698D02*
X6177087Y-14224174D01*
X6177087Y-14224174D02*
X6196134Y-14214650D01*
X6196134Y-14214650D02*
X6224706Y-14214650D01*
X6224706Y-14214650D02*
X6243753Y-14224174D01*
X6243753Y-14224174D02*
X6253277Y-14233698D01*
X6253277Y-14233698D02*
X6262801Y-14252746D01*
X6262801Y-14252746D02*
X6262801Y-14309888D01*
X6262801Y-14309888D02*
X6253277Y-14328936D01*
X6253277Y-14328936D02*
X6243753Y-14338460D01*
X6243753Y-14338460D02*
X6224706Y-14347984D01*
X6224706Y-14347984D02*
X6196134Y-14347984D01*
X6377087Y-14347984D02*
X6358039Y-14338460D01*
X6358039Y-14338460D02*
X6348515Y-14319412D01*
X6348515Y-14319412D02*
X6348515Y-14147984D01*
X6529468Y-14338460D02*
X6510420Y-14347984D01*
X6510420Y-14347984D02*
X6472325Y-14347984D01*
X6472325Y-14347984D02*
X6453277Y-14338460D01*
X6453277Y-14338460D02*
X6443753Y-14319412D01*
X6443753Y-14319412D02*
X6443753Y-14243222D01*
X6443753Y-14243222D02*
X6453277Y-14224174D01*
X6453277Y-14224174D02*
X6472325Y-14214650D01*
X6472325Y-14214650D02*
X6510420Y-14214650D01*
X6510420Y-14214650D02*
X6529468Y-14224174D01*
X6529468Y-14224174D02*
X6538991Y-14243222D01*
X6538991Y-14243222D02*
X6538991Y-14262269D01*
X6538991Y-14262269D02*
X6443753Y-14281317D01*
X6615182Y-14338460D02*
X6634230Y-14347984D01*
X6634230Y-14347984D02*
X6672325Y-14347984D01*
X6672325Y-14347984D02*
X6691372Y-14338460D01*
X6691372Y-14338460D02*
X6700896Y-14319412D01*
X6700896Y-14319412D02*
X6700896Y-14309888D01*
X6700896Y-14309888D02*
X6691372Y-14290841D01*
X6691372Y-14290841D02*
X6672325Y-14281317D01*
X6672325Y-14281317D02*
X6643753Y-14281317D01*
X6643753Y-14281317D02*
X6624706Y-14271793D01*
X6624706Y-14271793D02*
X6615182Y-14252746D01*
X6615182Y-14252746D02*
X6615182Y-14243222D01*
X6615182Y-14243222D02*
X6624706Y-14224174D01*
X6624706Y-14224174D02*
X6643753Y-14214650D01*
X6643753Y-14214650D02*
X6672325Y-14214650D01*
X6672325Y-14214650D02*
X6691372Y-14224174D01*
X6767563Y-14424174D02*
X6777087Y-14414650D01*
X6777087Y-14414650D02*
X6796134Y-14386079D01*
X6796134Y-14386079D02*
X6805658Y-14367031D01*
X6805658Y-14367031D02*
X6815182Y-14338460D01*
X6815182Y-14338460D02*
X6824706Y-14290841D01*
X6824706Y-14290841D02*
X6824706Y-14252746D01*
X6824706Y-14252746D02*
X6815182Y-14205127D01*
X6815182Y-14205127D02*
X6805658Y-14176555D01*
X6805658Y-14176555D02*
X6796134Y-14157508D01*
X6796134Y-14157508D02*
X6777087Y-14128936D01*
X6777087Y-14128936D02*
X6767563Y-14119412D01*
X7129468Y-14424174D02*
X7119944Y-14414650D01*
X7119944Y-14414650D02*
X7100896Y-14386079D01*
X7100896Y-14386079D02*
X7091372Y-14367031D01*
X7091372Y-14367031D02*
X7081849Y-14338460D01*
X7081849Y-14338460D02*
X7072325Y-14290841D01*
X7072325Y-14290841D02*
X7072325Y-14252746D01*
X7072325Y-14252746D02*
X7081849Y-14205127D01*
X7081849Y-14205127D02*
X7091372Y-14176555D01*
X7091372Y-14176555D02*
X7100896Y-14157508D01*
X7100896Y-14157508D02*
X7119944Y-14128936D01*
X7119944Y-14128936D02*
X7129468Y-14119412D01*
X7205658Y-14214650D02*
X7205658Y-14347984D01*
X7205658Y-14233698D02*
X7215182Y-14224174D01*
X7215182Y-14224174D02*
X7234230Y-14214650D01*
X7234230Y-14214650D02*
X7262801Y-14214650D01*
X7262801Y-14214650D02*
X7281849Y-14224174D01*
X7281849Y-14224174D02*
X7291372Y-14243222D01*
X7291372Y-14243222D02*
X7291372Y-14347984D01*
X7415182Y-14347984D02*
X7396134Y-14338460D01*
X7396134Y-14338460D02*
X7386611Y-14328936D01*
X7386611Y-14328936D02*
X7377087Y-14309888D01*
X7377087Y-14309888D02*
X7377087Y-14252746D01*
X7377087Y-14252746D02*
X7386611Y-14233698D01*
X7386611Y-14233698D02*
X7396134Y-14224174D01*
X7396134Y-14224174D02*
X7415182Y-14214650D01*
X7415182Y-14214650D02*
X7443753Y-14214650D01*
X7443753Y-14214650D02*
X7462801Y-14224174D01*
X7462801Y-14224174D02*
X7472325Y-14233698D01*
X7472325Y-14233698D02*
X7481849Y-14252746D01*
X7481849Y-14252746D02*
X7481849Y-14309888D01*
X7481849Y-14309888D02*
X7472325Y-14328936D01*
X7472325Y-14328936D02*
X7462801Y-14338460D01*
X7462801Y-14338460D02*
X7443753Y-14347984D01*
X7443753Y-14347984D02*
X7415182Y-14347984D01*
X7538992Y-14214650D02*
X7615182Y-14214650D01*
X7567563Y-14147984D02*
X7567563Y-14319412D01*
X7567563Y-14319412D02*
X7577087Y-14338460D01*
X7577087Y-14338460D02*
X7596134Y-14347984D01*
X7596134Y-14347984D02*
X7615182Y-14347984D01*
X7834230Y-14214650D02*
X7834230Y-14414650D01*
X7834230Y-14224174D02*
X7853277Y-14214650D01*
X7853277Y-14214650D02*
X7891373Y-14214650D01*
X7891373Y-14214650D02*
X7910420Y-14224174D01*
X7910420Y-14224174D02*
X7919944Y-14233698D01*
X7919944Y-14233698D02*
X7929468Y-14252746D01*
X7929468Y-14252746D02*
X7929468Y-14309888D01*
X7929468Y-14309888D02*
X7919944Y-14328936D01*
X7919944Y-14328936D02*
X7910420Y-14338460D01*
X7910420Y-14338460D02*
X7891373Y-14347984D01*
X7891373Y-14347984D02*
X7853277Y-14347984D01*
X7853277Y-14347984D02*
X7834230Y-14338460D01*
X8043753Y-14347984D02*
X8024706Y-14338460D01*
X8024706Y-14338460D02*
X8015182Y-14319412D01*
X8015182Y-14319412D02*
X8015182Y-14147984D01*
X8205658Y-14347984D02*
X8205658Y-14243222D01*
X8205658Y-14243222D02*
X8196134Y-14224174D01*
X8196134Y-14224174D02*
X8177087Y-14214650D01*
X8177087Y-14214650D02*
X8138992Y-14214650D01*
X8138992Y-14214650D02*
X8119944Y-14224174D01*
X8205658Y-14338460D02*
X8186611Y-14347984D01*
X8186611Y-14347984D02*
X8138992Y-14347984D01*
X8138992Y-14347984D02*
X8119944Y-14338460D01*
X8119944Y-14338460D02*
X8110420Y-14319412D01*
X8110420Y-14319412D02*
X8110420Y-14300365D01*
X8110420Y-14300365D02*
X8119944Y-14281317D01*
X8119944Y-14281317D02*
X8138992Y-14271793D01*
X8138992Y-14271793D02*
X8186611Y-14271793D01*
X8186611Y-14271793D02*
X8205658Y-14262269D01*
X8272325Y-14214650D02*
X8348515Y-14214650D01*
X8300896Y-14147984D02*
X8300896Y-14319412D01*
X8300896Y-14319412D02*
X8310420Y-14338460D01*
X8310420Y-14338460D02*
X8329468Y-14347984D01*
X8329468Y-14347984D02*
X8348515Y-14347984D01*
X8491373Y-14338460D02*
X8472325Y-14347984D01*
X8472325Y-14347984D02*
X8434230Y-14347984D01*
X8434230Y-14347984D02*
X8415182Y-14338460D01*
X8415182Y-14338460D02*
X8405658Y-14319412D01*
X8405658Y-14319412D02*
X8405658Y-14243222D01*
X8405658Y-14243222D02*
X8415182Y-14224174D01*
X8415182Y-14224174D02*
X8434230Y-14214650D01*
X8434230Y-14214650D02*
X8472325Y-14214650D01*
X8472325Y-14214650D02*
X8491373Y-14224174D01*
X8491373Y-14224174D02*
X8500896Y-14243222D01*
X8500896Y-14243222D02*
X8500896Y-14262269D01*
X8500896Y-14262269D02*
X8405658Y-14281317D01*
X8672325Y-14347984D02*
X8672325Y-14147984D01*
X8672325Y-14338460D02*
X8653277Y-14347984D01*
X8653277Y-14347984D02*
X8615182Y-14347984D01*
X8615182Y-14347984D02*
X8596135Y-14338460D01*
X8596135Y-14338460D02*
X8586611Y-14328936D01*
X8586611Y-14328936D02*
X8577087Y-14309888D01*
X8577087Y-14309888D02*
X8577087Y-14252746D01*
X8577087Y-14252746D02*
X8586611Y-14233698D01*
X8586611Y-14233698D02*
X8596135Y-14224174D01*
X8596135Y-14224174D02*
X8615182Y-14214650D01*
X8615182Y-14214650D02*
X8653277Y-14214650D01*
X8653277Y-14214650D02*
X8672325Y-14224174D01*
X8748516Y-14424174D02*
X8758039Y-14414650D01*
X8758039Y-14414650D02*
X8777087Y-14386079D01*
X8777087Y-14386079D02*
X8786611Y-14367031D01*
X8786611Y-14367031D02*
X8796135Y-14338460D01*
X8796135Y-14338460D02*
X8805658Y-14290841D01*
X8805658Y-14290841D02*
X8805658Y-14252746D01*
X8805658Y-14252746D02*
X8796135Y-14205127D01*
X8796135Y-14205127D02*
X8786611Y-14176555D01*
X8786611Y-14176555D02*
X8777087Y-14157508D01*
X8777087Y-14157508D02*
X8758039Y-14128936D01*
X8758039Y-14128936D02*
X8748516Y-14119412D01*
M02*
