G04 #@! TF.GenerationSoftware,KiCad,Pcbnew,9.0.0*
G04 #@! TF.CreationDate,2025-03-25T13:13:44-05:00*
G04 #@! TF.ProjectId,Armor_Plate,41726d6f-725f-4506-9c61-74652e6b6963,rev?*
G04 #@! TF.SameCoordinates,Original*
G04 #@! TF.FileFunction,Legend,Bot*
G04 #@! TF.FilePolarity,Positive*
%FSLAX46Y46*%
G04 Gerber Fmt 4.6, Leading zero omitted, Abs format (unit mm)*
G04 Created by KiCad (PCBNEW 9.0.0) date 2025-03-25 13:13:44*
%MOMM*%
%LPD*%
G01*
G04 APERTURE LIST*
%ADD10C,0.254000*%
%ADD11C,0.150000*%
%ADD12C,0.100000*%
%ADD13C,0.200000*%
%ADD14C,0.120000*%
%ADD15C,4.500000*%
%ADD16C,0.900000*%
%ADD17R,0.700000X1.500000*%
%ADD18R,1.000000X0.800000*%
%ADD19R,2.000000X2.000000*%
%ADD20C,2.000000*%
G04 APERTURE END LIST*
D10*
X81613333Y-95953842D02*
X81431904Y-96014318D01*
X81431904Y-96014318D02*
X81129523Y-96014318D01*
X81129523Y-96014318D02*
X81008571Y-95953842D01*
X81008571Y-95953842D02*
X80948095Y-95893365D01*
X80948095Y-95893365D02*
X80887618Y-95772413D01*
X80887618Y-95772413D02*
X80887618Y-95651461D01*
X80887618Y-95651461D02*
X80948095Y-95530508D01*
X80948095Y-95530508D02*
X81008571Y-95470032D01*
X81008571Y-95470032D02*
X81129523Y-95409556D01*
X81129523Y-95409556D02*
X81371428Y-95349080D01*
X81371428Y-95349080D02*
X81492380Y-95288603D01*
X81492380Y-95288603D02*
X81552857Y-95228127D01*
X81552857Y-95228127D02*
X81613333Y-95107175D01*
X81613333Y-95107175D02*
X81613333Y-94986222D01*
X81613333Y-94986222D02*
X81552857Y-94865270D01*
X81552857Y-94865270D02*
X81492380Y-94804794D01*
X81492380Y-94804794D02*
X81371428Y-94744318D01*
X81371428Y-94744318D02*
X81069047Y-94744318D01*
X81069047Y-94744318D02*
X80887618Y-94804794D01*
X80464285Y-94744318D02*
X80161904Y-96014318D01*
X80161904Y-96014318D02*
X79919999Y-95107175D01*
X79919999Y-95107175D02*
X79678094Y-96014318D01*
X79678094Y-96014318D02*
X79375714Y-94744318D01*
X79012856Y-94744318D02*
X78226665Y-94744318D01*
X78226665Y-94744318D02*
X78649999Y-95228127D01*
X78649999Y-95228127D02*
X78468570Y-95228127D01*
X78468570Y-95228127D02*
X78347618Y-95288603D01*
X78347618Y-95288603D02*
X78287142Y-95349080D01*
X78287142Y-95349080D02*
X78226665Y-95470032D01*
X78226665Y-95470032D02*
X78226665Y-95772413D01*
X78226665Y-95772413D02*
X78287142Y-95893365D01*
X78287142Y-95893365D02*
X78347618Y-95953842D01*
X78347618Y-95953842D02*
X78468570Y-96014318D01*
X78468570Y-96014318D02*
X78831427Y-96014318D01*
X78831427Y-96014318D02*
X78952380Y-95953842D01*
X78952380Y-95953842D02*
X79012856Y-95893365D01*
D11*
X104635714Y-60581009D02*
X104492857Y-60628628D01*
X104492857Y-60628628D02*
X104445238Y-60676247D01*
X104445238Y-60676247D02*
X104397619Y-60771485D01*
X104397619Y-60771485D02*
X104397619Y-60914342D01*
X104397619Y-60914342D02*
X104445238Y-61009580D01*
X104445238Y-61009580D02*
X104492857Y-61057200D01*
X104492857Y-61057200D02*
X104588095Y-61104819D01*
X104588095Y-61104819D02*
X104969047Y-61104819D01*
X104969047Y-61104819D02*
X104969047Y-60104819D01*
X104969047Y-60104819D02*
X104635714Y-60104819D01*
X104635714Y-60104819D02*
X104540476Y-60152438D01*
X104540476Y-60152438D02*
X104492857Y-60200057D01*
X104492857Y-60200057D02*
X104445238Y-60295295D01*
X104445238Y-60295295D02*
X104445238Y-60390533D01*
X104445238Y-60390533D02*
X104492857Y-60485771D01*
X104492857Y-60485771D02*
X104540476Y-60533390D01*
X104540476Y-60533390D02*
X104635714Y-60581009D01*
X104635714Y-60581009D02*
X104969047Y-60581009D01*
X104111904Y-60104819D02*
X103540476Y-60104819D01*
X103826190Y-61104819D02*
X103826190Y-60104819D01*
X102683333Y-61104819D02*
X103254761Y-61104819D01*
X102969047Y-61104819D02*
X102969047Y-60104819D01*
X102969047Y-60104819D02*
X103064285Y-60247676D01*
X103064285Y-60247676D02*
X103159523Y-60342914D01*
X103159523Y-60342914D02*
X103254761Y-60390533D01*
X55970951Y-68723866D02*
X55209047Y-68723866D01*
X108040951Y-68723866D02*
X107279047Y-68723866D01*
X107659999Y-69104819D02*
X107659999Y-68342914D01*
D12*
X76320000Y-94140000D02*
X75420000Y-94140000D01*
X80820000Y-94140000D02*
X79020000Y-94140000D01*
D13*
X82820000Y-92540000D02*
X82820000Y-92540000D01*
X83020000Y-92540000D02*
X83020000Y-92540000D01*
D12*
X84120000Y-96740000D02*
X75720000Y-96740000D01*
X84420000Y-94140000D02*
X83520000Y-94140000D01*
D13*
X82820000Y-92540000D02*
G75*
G02*
X83020000Y-92540000I100000J0D01*
G01*
X83020000Y-92540000D02*
G75*
G02*
X82820000Y-92540000I-100000J0D01*
G01*
D14*
X56450000Y-62050000D02*
X106650000Y-62050000D01*
X56450000Y-75250000D02*
X56450000Y-62050000D01*
X57850000Y-62650000D02*
X57850000Y-74650000D01*
X57850000Y-62650000D02*
X60850000Y-62650000D01*
X57850000Y-74650000D02*
X60850000Y-74650000D01*
X60850000Y-64650000D02*
X60850000Y-72650000D01*
X61850000Y-71650000D02*
X61850000Y-65650000D01*
X62850000Y-64650000D02*
X72850000Y-64650000D01*
X62850000Y-66650000D02*
X62850000Y-70650000D01*
X62850000Y-72650000D02*
X72850000Y-72650000D01*
X63850000Y-67650000D02*
X63850000Y-69650000D01*
X74850000Y-62650000D02*
X88850000Y-62650000D01*
X88850000Y-74650000D02*
X74850000Y-74650000D01*
X100850000Y-64650000D02*
X90850000Y-64650000D01*
X100850000Y-72650000D02*
X90850000Y-72650000D01*
X104850000Y-70650000D02*
X105850000Y-70650000D01*
X105850000Y-62650000D02*
X102850000Y-62650000D01*
X105850000Y-62650000D02*
X105850000Y-74650000D01*
X105850000Y-66650000D02*
X104850000Y-66650000D01*
X105850000Y-74650000D02*
X102850000Y-74650000D01*
X106650000Y-62050000D02*
X106650000Y-75250000D01*
X106650000Y-75250000D02*
X56450000Y-75250000D01*
X60850000Y-74650000D02*
G75*
G02*
X62850000Y-72650000I2000000J0D01*
G01*
X62850000Y-64650000D02*
G75*
G02*
X60850000Y-62650000I0J2000000D01*
G01*
X72850000Y-72650000D02*
G75*
G02*
X74850000Y-74650000I0J-2000000D01*
G01*
X74850000Y-62650000D02*
G75*
G02*
X72850000Y-64650000I-2000000J0D01*
G01*
X88850000Y-74650000D02*
G75*
G02*
X90850000Y-72650000I2000000J0D01*
G01*
X90850000Y-64650000D02*
G75*
G02*
X88850000Y-62650000I0J2000000D01*
G01*
X100850000Y-72650000D02*
G75*
G02*
X102850000Y-74650000I0J-2000000D01*
G01*
X102850000Y-62650000D02*
G75*
G02*
X100850000Y-64650000I-2000000J0D01*
G01*
%LPC*%
D15*
X32450000Y-127250000D03*
X32450000Y-22750000D03*
X127450000Y-22750000D03*
X127450000Y-127250000D03*
D16*
X82420000Y-95440000D03*
X77420000Y-95440000D03*
D17*
X82920000Y-93690000D03*
X81420000Y-93690000D03*
X78420000Y-93690000D03*
X76920000Y-93690000D03*
D18*
X85070000Y-94390000D03*
X85070000Y-96230000D03*
X74770000Y-96490000D03*
X74770000Y-94390000D03*
D19*
X103850000Y-68650000D03*
D20*
X59150000Y-68650000D03*
%LPD*%
M02*
