G04 #@! TF.GenerationSoftware,KiCad,Pcbnew,9.0.0*
G04 #@! TF.CreationDate,2025-03-25T13:13:44-05:00*
G04 #@! TF.ProjectId,Armor_Plate,41726d6f-725f-4506-9c61-74652e6b6963,rev?*
G04 #@! TF.SameCoordinates,Original*
G04 #@! TF.FileFunction,Legend,Top*
G04 #@! TF.FilePolarity,Positive*
%FSLAX46Y46*%
G04 Gerber Fmt 4.6, Leading zero omitted, Abs format (unit mm)*
G04 Created by KiCad (PCBNEW 9.0.0) date 2025-03-25 13:13:44*
%MOMM*%
%LPD*%
G01*
G04 APERTURE LIST*
G04 Aperture macros list*
%AMRoundRect*
0 Rectangle with rounded corners*
0 $1 Rounding radius*
0 $2 $3 $4 $5 $6 $7 $8 $9 X,Y pos of 4 corners*
0 Add a 4 corners polygon primitive as box body*
4,1,4,$2,$3,$4,$5,$6,$7,$8,$9,$2,$3,0*
0 Add four circle primitives for the rounded corners*
1,1,$1+$1,$2,$3*
1,1,$1+$1,$4,$5*
1,1,$1+$1,$6,$7*
1,1,$1+$1,$8,$9*
0 Add four rect primitives between the rounded corners*
20,1,$1+$1,$2,$3,$4,$5,0*
20,1,$1+$1,$4,$5,$6,$7,0*
20,1,$1+$1,$6,$7,$8,$9,0*
20,1,$1+$1,$8,$9,$2,$3,0*%
G04 Aperture macros list end*
%ADD10C,0.150000*%
%ADD11C,0.120000*%
%ADD12RoundRect,0.237500X0.250000X0.237500X-0.250000X0.237500X-0.250000X-0.237500X0.250000X-0.237500X0*%
%ADD13RoundRect,0.237500X-0.250000X-0.237500X0.250000X-0.237500X0.250000X0.237500X-0.250000X0.237500X0*%
%ADD14RoundRect,0.237500X0.287500X0.237500X-0.287500X0.237500X-0.287500X-0.237500X0.287500X-0.237500X0*%
%ADD15RoundRect,0.237500X-0.287500X-0.237500X0.287500X-0.237500X0.287500X0.237500X-0.287500X0.237500X0*%
%ADD16C,4.500000*%
%ADD17C,0.900000*%
%ADD18R,2.000000X2.000000*%
%ADD19C,2.000000*%
G04 APERTURE END LIST*
D10*
X32140833Y-79494268D02*
X31807500Y-79018077D01*
X31569405Y-79494268D02*
X31569405Y-78494268D01*
X31569405Y-78494268D02*
X31950357Y-78494268D01*
X31950357Y-78494268D02*
X32045595Y-78541887D01*
X32045595Y-78541887D02*
X32093214Y-78589506D01*
X32093214Y-78589506D02*
X32140833Y-78684744D01*
X32140833Y-78684744D02*
X32140833Y-78827601D01*
X32140833Y-78827601D02*
X32093214Y-78922839D01*
X32093214Y-78922839D02*
X32045595Y-78970458D01*
X32045595Y-78970458D02*
X31950357Y-79018077D01*
X31950357Y-79018077D02*
X31569405Y-79018077D01*
X32712262Y-78922839D02*
X32617024Y-78875220D01*
X32617024Y-78875220D02*
X32569405Y-78827601D01*
X32569405Y-78827601D02*
X32521786Y-78732363D01*
X32521786Y-78732363D02*
X32521786Y-78684744D01*
X32521786Y-78684744D02*
X32569405Y-78589506D01*
X32569405Y-78589506D02*
X32617024Y-78541887D01*
X32617024Y-78541887D02*
X32712262Y-78494268D01*
X32712262Y-78494268D02*
X32902738Y-78494268D01*
X32902738Y-78494268D02*
X32997976Y-78541887D01*
X32997976Y-78541887D02*
X33045595Y-78589506D01*
X33045595Y-78589506D02*
X33093214Y-78684744D01*
X33093214Y-78684744D02*
X33093214Y-78732363D01*
X33093214Y-78732363D02*
X33045595Y-78827601D01*
X33045595Y-78827601D02*
X32997976Y-78875220D01*
X32997976Y-78875220D02*
X32902738Y-78922839D01*
X32902738Y-78922839D02*
X32712262Y-78922839D01*
X32712262Y-78922839D02*
X32617024Y-78970458D01*
X32617024Y-78970458D02*
X32569405Y-79018077D01*
X32569405Y-79018077D02*
X32521786Y-79113315D01*
X32521786Y-79113315D02*
X32521786Y-79303791D01*
X32521786Y-79303791D02*
X32569405Y-79399029D01*
X32569405Y-79399029D02*
X32617024Y-79446649D01*
X32617024Y-79446649D02*
X32712262Y-79494268D01*
X32712262Y-79494268D02*
X32902738Y-79494268D01*
X32902738Y-79494268D02*
X32997976Y-79446649D01*
X32997976Y-79446649D02*
X33045595Y-79399029D01*
X33045595Y-79399029D02*
X33093214Y-79303791D01*
X33093214Y-79303791D02*
X33093214Y-79113315D01*
X33093214Y-79113315D02*
X33045595Y-79018077D01*
X33045595Y-79018077D02*
X32997976Y-78970458D01*
X32997976Y-78970458D02*
X32902738Y-78922839D01*
X127289642Y-76510373D02*
X126956309Y-76034182D01*
X126718214Y-76510373D02*
X126718214Y-75510373D01*
X126718214Y-75510373D02*
X127099166Y-75510373D01*
X127099166Y-75510373D02*
X127194404Y-75557992D01*
X127194404Y-75557992D02*
X127242023Y-75605611D01*
X127242023Y-75605611D02*
X127289642Y-75700849D01*
X127289642Y-75700849D02*
X127289642Y-75843706D01*
X127289642Y-75843706D02*
X127242023Y-75938944D01*
X127242023Y-75938944D02*
X127194404Y-75986563D01*
X127194404Y-75986563D02*
X127099166Y-76034182D01*
X127099166Y-76034182D02*
X126718214Y-76034182D01*
X128242023Y-76510373D02*
X127670595Y-76510373D01*
X127956309Y-76510373D02*
X127956309Y-75510373D01*
X127956309Y-75510373D02*
X127861071Y-75653230D01*
X127861071Y-75653230D02*
X127765833Y-75748468D01*
X127765833Y-75748468D02*
X127670595Y-75796087D01*
X128813452Y-75938944D02*
X128718214Y-75891325D01*
X128718214Y-75891325D02*
X128670595Y-75843706D01*
X128670595Y-75843706D02*
X128622976Y-75748468D01*
X128622976Y-75748468D02*
X128622976Y-75700849D01*
X128622976Y-75700849D02*
X128670595Y-75605611D01*
X128670595Y-75605611D02*
X128718214Y-75557992D01*
X128718214Y-75557992D02*
X128813452Y-75510373D01*
X128813452Y-75510373D02*
X129003928Y-75510373D01*
X129003928Y-75510373D02*
X129099166Y-75557992D01*
X129099166Y-75557992D02*
X129146785Y-75605611D01*
X129146785Y-75605611D02*
X129194404Y-75700849D01*
X129194404Y-75700849D02*
X129194404Y-75748468D01*
X129194404Y-75748468D02*
X129146785Y-75843706D01*
X129146785Y-75843706D02*
X129099166Y-75891325D01*
X129099166Y-75891325D02*
X129003928Y-75938944D01*
X129003928Y-75938944D02*
X128813452Y-75938944D01*
X128813452Y-75938944D02*
X128718214Y-75986563D01*
X128718214Y-75986563D02*
X128670595Y-76034182D01*
X128670595Y-76034182D02*
X128622976Y-76129420D01*
X128622976Y-76129420D02*
X128622976Y-76319896D01*
X128622976Y-76319896D02*
X128670595Y-76415134D01*
X128670595Y-76415134D02*
X128718214Y-76462754D01*
X128718214Y-76462754D02*
X128813452Y-76510373D01*
X128813452Y-76510373D02*
X129003928Y-76510373D01*
X129003928Y-76510373D02*
X129099166Y-76462754D01*
X129099166Y-76462754D02*
X129146785Y-76415134D01*
X129146785Y-76415134D02*
X129194404Y-76319896D01*
X129194404Y-76319896D02*
X129194404Y-76129420D01*
X129194404Y-76129420D02*
X129146785Y-76034182D01*
X129146785Y-76034182D02*
X129099166Y-75986563D01*
X129099166Y-75986563D02*
X129003928Y-75938944D01*
X22541905Y-69583157D02*
X22541905Y-68583157D01*
X22541905Y-68583157D02*
X22780000Y-68583157D01*
X22780000Y-68583157D02*
X22922857Y-68630776D01*
X22922857Y-68630776D02*
X23018095Y-68726014D01*
X23018095Y-68726014D02*
X23065714Y-68821252D01*
X23065714Y-68821252D02*
X23113333Y-69011728D01*
X23113333Y-69011728D02*
X23113333Y-69154585D01*
X23113333Y-69154585D02*
X23065714Y-69345061D01*
X23065714Y-69345061D02*
X23018095Y-69440299D01*
X23018095Y-69440299D02*
X22922857Y-69535538D01*
X22922857Y-69535538D02*
X22780000Y-69583157D01*
X22780000Y-69583157D02*
X22541905Y-69583157D01*
X23446667Y-68583157D02*
X24113333Y-68583157D01*
X24113333Y-68583157D02*
X23684762Y-69583157D01*
X32140833Y-74538712D02*
X31807500Y-74062521D01*
X31569405Y-74538712D02*
X31569405Y-73538712D01*
X31569405Y-73538712D02*
X31950357Y-73538712D01*
X31950357Y-73538712D02*
X32045595Y-73586331D01*
X32045595Y-73586331D02*
X32093214Y-73633950D01*
X32093214Y-73633950D02*
X32140833Y-73729188D01*
X32140833Y-73729188D02*
X32140833Y-73872045D01*
X32140833Y-73872045D02*
X32093214Y-73967283D01*
X32093214Y-73967283D02*
X32045595Y-74014902D01*
X32045595Y-74014902D02*
X31950357Y-74062521D01*
X31950357Y-74062521D02*
X31569405Y-74062521D01*
X32474167Y-73538712D02*
X33093214Y-73538712D01*
X33093214Y-73538712D02*
X32759881Y-73919664D01*
X32759881Y-73919664D02*
X32902738Y-73919664D01*
X32902738Y-73919664D02*
X32997976Y-73967283D01*
X32997976Y-73967283D02*
X33045595Y-74014902D01*
X33045595Y-74014902D02*
X33093214Y-74110140D01*
X33093214Y-74110140D02*
X33093214Y-74348235D01*
X33093214Y-74348235D02*
X33045595Y-74443473D01*
X33045595Y-74443473D02*
X32997976Y-74491093D01*
X32997976Y-74491093D02*
X32902738Y-74538712D01*
X32902738Y-74538712D02*
X32617024Y-74538712D01*
X32617024Y-74538712D02*
X32521786Y-74491093D01*
X32521786Y-74491093D02*
X32474167Y-74443473D01*
X135745714Y-56571112D02*
X135745714Y-55571112D01*
X135745714Y-55571112D02*
X135983809Y-55571112D01*
X135983809Y-55571112D02*
X136126666Y-55618731D01*
X136126666Y-55618731D02*
X136221904Y-55713969D01*
X136221904Y-55713969D02*
X136269523Y-55809207D01*
X136269523Y-55809207D02*
X136317142Y-55999683D01*
X136317142Y-55999683D02*
X136317142Y-56142540D01*
X136317142Y-56142540D02*
X136269523Y-56333016D01*
X136269523Y-56333016D02*
X136221904Y-56428254D01*
X136221904Y-56428254D02*
X136126666Y-56523493D01*
X136126666Y-56523493D02*
X135983809Y-56571112D01*
X135983809Y-56571112D02*
X135745714Y-56571112D01*
X137269523Y-56571112D02*
X136698095Y-56571112D01*
X136983809Y-56571112D02*
X136983809Y-55571112D01*
X136983809Y-55571112D02*
X136888571Y-55713969D01*
X136888571Y-55713969D02*
X136793333Y-55809207D01*
X136793333Y-55809207D02*
X136698095Y-55856826D01*
X138126666Y-55571112D02*
X137936190Y-55571112D01*
X137936190Y-55571112D02*
X137840952Y-55618731D01*
X137840952Y-55618731D02*
X137793333Y-55666350D01*
X137793333Y-55666350D02*
X137698095Y-55809207D01*
X137698095Y-55809207D02*
X137650476Y-55999683D01*
X137650476Y-55999683D02*
X137650476Y-56380635D01*
X137650476Y-56380635D02*
X137698095Y-56475873D01*
X137698095Y-56475873D02*
X137745714Y-56523493D01*
X137745714Y-56523493D02*
X137840952Y-56571112D01*
X137840952Y-56571112D02*
X138031428Y-56571112D01*
X138031428Y-56571112D02*
X138126666Y-56523493D01*
X138126666Y-56523493D02*
X138174285Y-56475873D01*
X138174285Y-56475873D02*
X138221904Y-56380635D01*
X138221904Y-56380635D02*
X138221904Y-56142540D01*
X138221904Y-56142540D02*
X138174285Y-56047302D01*
X138174285Y-56047302D02*
X138126666Y-55999683D01*
X138126666Y-55999683D02*
X138031428Y-55952064D01*
X138031428Y-55952064D02*
X137840952Y-55952064D01*
X137840952Y-55952064D02*
X137745714Y-55999683D01*
X137745714Y-55999683D02*
X137698095Y-56047302D01*
X137698095Y-56047302D02*
X137650476Y-56142540D01*
X127289642Y-81495188D02*
X126956309Y-81018997D01*
X126718214Y-81495188D02*
X126718214Y-80495188D01*
X126718214Y-80495188D02*
X127099166Y-80495188D01*
X127099166Y-80495188D02*
X127194404Y-80542807D01*
X127194404Y-80542807D02*
X127242023Y-80590426D01*
X127242023Y-80590426D02*
X127289642Y-80685664D01*
X127289642Y-80685664D02*
X127289642Y-80828521D01*
X127289642Y-80828521D02*
X127242023Y-80923759D01*
X127242023Y-80923759D02*
X127194404Y-80971378D01*
X127194404Y-80971378D02*
X127099166Y-81018997D01*
X127099166Y-81018997D02*
X126718214Y-81018997D01*
X128242023Y-81495188D02*
X127670595Y-81495188D01*
X127956309Y-81495188D02*
X127956309Y-80495188D01*
X127956309Y-80495188D02*
X127861071Y-80638045D01*
X127861071Y-80638045D02*
X127765833Y-80733283D01*
X127765833Y-80733283D02*
X127670595Y-80780902D01*
X129099166Y-80828521D02*
X129099166Y-81495188D01*
X128861071Y-80447569D02*
X128622976Y-81161854D01*
X128622976Y-81161854D02*
X129242023Y-81161854D01*
X32140833Y-69583157D02*
X31807500Y-69106966D01*
X31569405Y-69583157D02*
X31569405Y-68583157D01*
X31569405Y-68583157D02*
X31950357Y-68583157D01*
X31950357Y-68583157D02*
X32045595Y-68630776D01*
X32045595Y-68630776D02*
X32093214Y-68678395D01*
X32093214Y-68678395D02*
X32140833Y-68773633D01*
X32140833Y-68773633D02*
X32140833Y-68916490D01*
X32140833Y-68916490D02*
X32093214Y-69011728D01*
X32093214Y-69011728D02*
X32045595Y-69059347D01*
X32045595Y-69059347D02*
X31950357Y-69106966D01*
X31950357Y-69106966D02*
X31569405Y-69106966D01*
X32474167Y-68583157D02*
X33140833Y-68583157D01*
X33140833Y-68583157D02*
X32712262Y-69583157D01*
X32140833Y-59672047D02*
X31807500Y-59195856D01*
X31569405Y-59672047D02*
X31569405Y-58672047D01*
X31569405Y-58672047D02*
X31950357Y-58672047D01*
X31950357Y-58672047D02*
X32045595Y-58719666D01*
X32045595Y-58719666D02*
X32093214Y-58767285D01*
X32093214Y-58767285D02*
X32140833Y-58862523D01*
X32140833Y-58862523D02*
X32140833Y-59005380D01*
X32140833Y-59005380D02*
X32093214Y-59100618D01*
X32093214Y-59100618D02*
X32045595Y-59148237D01*
X32045595Y-59148237D02*
X31950357Y-59195856D01*
X31950357Y-59195856D02*
X31569405Y-59195856D01*
X32997976Y-58672047D02*
X32807500Y-58672047D01*
X32807500Y-58672047D02*
X32712262Y-58719666D01*
X32712262Y-58719666D02*
X32664643Y-58767285D01*
X32664643Y-58767285D02*
X32569405Y-58910142D01*
X32569405Y-58910142D02*
X32521786Y-59100618D01*
X32521786Y-59100618D02*
X32521786Y-59481570D01*
X32521786Y-59481570D02*
X32569405Y-59576808D01*
X32569405Y-59576808D02*
X32617024Y-59624428D01*
X32617024Y-59624428D02*
X32712262Y-59672047D01*
X32712262Y-59672047D02*
X32902738Y-59672047D01*
X32902738Y-59672047D02*
X32997976Y-59624428D01*
X32997976Y-59624428D02*
X33045595Y-59576808D01*
X33045595Y-59576808D02*
X33093214Y-59481570D01*
X33093214Y-59481570D02*
X33093214Y-59243475D01*
X33093214Y-59243475D02*
X33045595Y-59148237D01*
X33045595Y-59148237D02*
X32997976Y-59100618D01*
X32997976Y-59100618D02*
X32902738Y-59052999D01*
X32902738Y-59052999D02*
X32712262Y-59052999D01*
X32712262Y-59052999D02*
X32617024Y-59100618D01*
X32617024Y-59100618D02*
X32569405Y-59148237D01*
X32569405Y-59148237D02*
X32521786Y-59243475D01*
X135745714Y-76510373D02*
X135745714Y-75510373D01*
X135745714Y-75510373D02*
X135983809Y-75510373D01*
X135983809Y-75510373D02*
X136126666Y-75557992D01*
X136126666Y-75557992D02*
X136221904Y-75653230D01*
X136221904Y-75653230D02*
X136269523Y-75748468D01*
X136269523Y-75748468D02*
X136317142Y-75938944D01*
X136317142Y-75938944D02*
X136317142Y-76081801D01*
X136317142Y-76081801D02*
X136269523Y-76272277D01*
X136269523Y-76272277D02*
X136221904Y-76367515D01*
X136221904Y-76367515D02*
X136126666Y-76462754D01*
X136126666Y-76462754D02*
X135983809Y-76510373D01*
X135983809Y-76510373D02*
X135745714Y-76510373D01*
X137269523Y-76510373D02*
X136698095Y-76510373D01*
X136983809Y-76510373D02*
X136983809Y-75510373D01*
X136983809Y-75510373D02*
X136888571Y-75653230D01*
X136888571Y-75653230D02*
X136793333Y-75748468D01*
X136793333Y-75748468D02*
X136698095Y-75796087D01*
X137840952Y-75938944D02*
X137745714Y-75891325D01*
X137745714Y-75891325D02*
X137698095Y-75843706D01*
X137698095Y-75843706D02*
X137650476Y-75748468D01*
X137650476Y-75748468D02*
X137650476Y-75700849D01*
X137650476Y-75700849D02*
X137698095Y-75605611D01*
X137698095Y-75605611D02*
X137745714Y-75557992D01*
X137745714Y-75557992D02*
X137840952Y-75510373D01*
X137840952Y-75510373D02*
X138031428Y-75510373D01*
X138031428Y-75510373D02*
X138126666Y-75557992D01*
X138126666Y-75557992D02*
X138174285Y-75605611D01*
X138174285Y-75605611D02*
X138221904Y-75700849D01*
X138221904Y-75700849D02*
X138221904Y-75748468D01*
X138221904Y-75748468D02*
X138174285Y-75843706D01*
X138174285Y-75843706D02*
X138126666Y-75891325D01*
X138126666Y-75891325D02*
X138031428Y-75938944D01*
X138031428Y-75938944D02*
X137840952Y-75938944D01*
X137840952Y-75938944D02*
X137745714Y-75986563D01*
X137745714Y-75986563D02*
X137698095Y-76034182D01*
X137698095Y-76034182D02*
X137650476Y-76129420D01*
X137650476Y-76129420D02*
X137650476Y-76319896D01*
X137650476Y-76319896D02*
X137698095Y-76415134D01*
X137698095Y-76415134D02*
X137745714Y-76462754D01*
X137745714Y-76462754D02*
X137840952Y-76510373D01*
X137840952Y-76510373D02*
X138031428Y-76510373D01*
X138031428Y-76510373D02*
X138126666Y-76462754D01*
X138126666Y-76462754D02*
X138174285Y-76415134D01*
X138174285Y-76415134D02*
X138221904Y-76319896D01*
X138221904Y-76319896D02*
X138221904Y-76129420D01*
X138221904Y-76129420D02*
X138174285Y-76034182D01*
X138174285Y-76034182D02*
X138126666Y-75986563D01*
X138126666Y-75986563D02*
X138031428Y-75938944D01*
X22065714Y-99316488D02*
X22065714Y-98316488D01*
X22065714Y-98316488D02*
X22303809Y-98316488D01*
X22303809Y-98316488D02*
X22446666Y-98364107D01*
X22446666Y-98364107D02*
X22541904Y-98459345D01*
X22541904Y-98459345D02*
X22589523Y-98554583D01*
X22589523Y-98554583D02*
X22637142Y-98745059D01*
X22637142Y-98745059D02*
X22637142Y-98887916D01*
X22637142Y-98887916D02*
X22589523Y-99078392D01*
X22589523Y-99078392D02*
X22541904Y-99173630D01*
X22541904Y-99173630D02*
X22446666Y-99268869D01*
X22446666Y-99268869D02*
X22303809Y-99316488D01*
X22303809Y-99316488D02*
X22065714Y-99316488D01*
X23589523Y-99316488D02*
X23018095Y-99316488D01*
X23303809Y-99316488D02*
X23303809Y-98316488D01*
X23303809Y-98316488D02*
X23208571Y-98459345D01*
X23208571Y-98459345D02*
X23113333Y-98554583D01*
X23113333Y-98554583D02*
X23018095Y-98602202D01*
X24208571Y-98316488D02*
X24303809Y-98316488D01*
X24303809Y-98316488D02*
X24399047Y-98364107D01*
X24399047Y-98364107D02*
X24446666Y-98411726D01*
X24446666Y-98411726D02*
X24494285Y-98506964D01*
X24494285Y-98506964D02*
X24541904Y-98697440D01*
X24541904Y-98697440D02*
X24541904Y-98935535D01*
X24541904Y-98935535D02*
X24494285Y-99126011D01*
X24494285Y-99126011D02*
X24446666Y-99221249D01*
X24446666Y-99221249D02*
X24399047Y-99268869D01*
X24399047Y-99268869D02*
X24303809Y-99316488D01*
X24303809Y-99316488D02*
X24208571Y-99316488D01*
X24208571Y-99316488D02*
X24113333Y-99268869D01*
X24113333Y-99268869D02*
X24065714Y-99221249D01*
X24065714Y-99221249D02*
X24018095Y-99126011D01*
X24018095Y-99126011D02*
X23970476Y-98935535D01*
X23970476Y-98935535D02*
X23970476Y-98697440D01*
X23970476Y-98697440D02*
X24018095Y-98506964D01*
X24018095Y-98506964D02*
X24065714Y-98411726D01*
X24065714Y-98411726D02*
X24113333Y-98364107D01*
X24113333Y-98364107D02*
X24208571Y-98316488D01*
X24806905Y-84449823D02*
X24806905Y-83449823D01*
X24806905Y-83449823D02*
X25045000Y-83449823D01*
X25045000Y-83449823D02*
X25187857Y-83497442D01*
X25187857Y-83497442D02*
X25283095Y-83592680D01*
X25283095Y-83592680D02*
X25330714Y-83687918D01*
X25330714Y-83687918D02*
X25378333Y-83878394D01*
X25378333Y-83878394D02*
X25378333Y-84021251D01*
X25378333Y-84021251D02*
X25330714Y-84211727D01*
X25330714Y-84211727D02*
X25283095Y-84306965D01*
X25283095Y-84306965D02*
X25187857Y-84402204D01*
X25187857Y-84402204D02*
X25045000Y-84449823D01*
X25045000Y-84449823D02*
X24806905Y-84449823D01*
X26235476Y-83783156D02*
X26235476Y-84449823D01*
X25997381Y-83402204D02*
X25759286Y-84116489D01*
X25759286Y-84116489D02*
X26378333Y-84116489D01*
X22541905Y-89405378D02*
X22541905Y-88405378D01*
X22541905Y-88405378D02*
X22780000Y-88405378D01*
X22780000Y-88405378D02*
X22922857Y-88452997D01*
X22922857Y-88452997D02*
X23018095Y-88548235D01*
X23018095Y-88548235D02*
X23065714Y-88643473D01*
X23065714Y-88643473D02*
X23113333Y-88833949D01*
X23113333Y-88833949D02*
X23113333Y-88976806D01*
X23113333Y-88976806D02*
X23065714Y-89167282D01*
X23065714Y-89167282D02*
X23018095Y-89262520D01*
X23018095Y-89262520D02*
X22922857Y-89357759D01*
X22922857Y-89357759D02*
X22780000Y-89405378D01*
X22780000Y-89405378D02*
X22541905Y-89405378D01*
X23589524Y-89405378D02*
X23780000Y-89405378D01*
X23780000Y-89405378D02*
X23875238Y-89357759D01*
X23875238Y-89357759D02*
X23922857Y-89310139D01*
X23922857Y-89310139D02*
X24018095Y-89167282D01*
X24018095Y-89167282D02*
X24065714Y-88976806D01*
X24065714Y-88976806D02*
X24065714Y-88595854D01*
X24065714Y-88595854D02*
X24018095Y-88500616D01*
X24018095Y-88500616D02*
X23970476Y-88452997D01*
X23970476Y-88452997D02*
X23875238Y-88405378D01*
X23875238Y-88405378D02*
X23684762Y-88405378D01*
X23684762Y-88405378D02*
X23589524Y-88452997D01*
X23589524Y-88452997D02*
X23541905Y-88500616D01*
X23541905Y-88500616D02*
X23494286Y-88595854D01*
X23494286Y-88595854D02*
X23494286Y-88833949D01*
X23494286Y-88833949D02*
X23541905Y-88929187D01*
X23541905Y-88929187D02*
X23589524Y-88976806D01*
X23589524Y-88976806D02*
X23684762Y-89024425D01*
X23684762Y-89024425D02*
X23875238Y-89024425D01*
X23875238Y-89024425D02*
X23970476Y-88976806D01*
X23970476Y-88976806D02*
X24018095Y-88929187D01*
X24018095Y-88929187D02*
X24065714Y-88833949D01*
X135745714Y-96449634D02*
X135745714Y-95449634D01*
X135745714Y-95449634D02*
X135983809Y-95449634D01*
X135983809Y-95449634D02*
X136126666Y-95497253D01*
X136126666Y-95497253D02*
X136221904Y-95592491D01*
X136221904Y-95592491D02*
X136269523Y-95687729D01*
X136269523Y-95687729D02*
X136317142Y-95878205D01*
X136317142Y-95878205D02*
X136317142Y-96021062D01*
X136317142Y-96021062D02*
X136269523Y-96211538D01*
X136269523Y-96211538D02*
X136221904Y-96306776D01*
X136221904Y-96306776D02*
X136126666Y-96402015D01*
X136126666Y-96402015D02*
X135983809Y-96449634D01*
X135983809Y-96449634D02*
X135745714Y-96449634D01*
X136698095Y-95544872D02*
X136745714Y-95497253D01*
X136745714Y-95497253D02*
X136840952Y-95449634D01*
X136840952Y-95449634D02*
X137079047Y-95449634D01*
X137079047Y-95449634D02*
X137174285Y-95497253D01*
X137174285Y-95497253D02*
X137221904Y-95544872D01*
X137221904Y-95544872D02*
X137269523Y-95640110D01*
X137269523Y-95640110D02*
X137269523Y-95735348D01*
X137269523Y-95735348D02*
X137221904Y-95878205D01*
X137221904Y-95878205D02*
X136650476Y-96449634D01*
X136650476Y-96449634D02*
X137269523Y-96449634D01*
X137888571Y-95449634D02*
X137983809Y-95449634D01*
X137983809Y-95449634D02*
X138079047Y-95497253D01*
X138079047Y-95497253D02*
X138126666Y-95544872D01*
X138126666Y-95544872D02*
X138174285Y-95640110D01*
X138174285Y-95640110D02*
X138221904Y-95830586D01*
X138221904Y-95830586D02*
X138221904Y-96068681D01*
X138221904Y-96068681D02*
X138174285Y-96259157D01*
X138174285Y-96259157D02*
X138126666Y-96354395D01*
X138126666Y-96354395D02*
X138079047Y-96402015D01*
X138079047Y-96402015D02*
X137983809Y-96449634D01*
X137983809Y-96449634D02*
X137888571Y-96449634D01*
X137888571Y-96449634D02*
X137793333Y-96402015D01*
X137793333Y-96402015D02*
X137745714Y-96354395D01*
X137745714Y-96354395D02*
X137698095Y-96259157D01*
X137698095Y-96259157D02*
X137650476Y-96068681D01*
X137650476Y-96068681D02*
X137650476Y-95830586D01*
X137650476Y-95830586D02*
X137698095Y-95640110D01*
X137698095Y-95640110D02*
X137745714Y-95544872D01*
X137745714Y-95544872D02*
X137793333Y-95497253D01*
X137793333Y-95497253D02*
X137888571Y-95449634D01*
X32140833Y-54716492D02*
X31807500Y-54240301D01*
X31569405Y-54716492D02*
X31569405Y-53716492D01*
X31569405Y-53716492D02*
X31950357Y-53716492D01*
X31950357Y-53716492D02*
X32045595Y-53764111D01*
X32045595Y-53764111D02*
X32093214Y-53811730D01*
X32093214Y-53811730D02*
X32140833Y-53906968D01*
X32140833Y-53906968D02*
X32140833Y-54049825D01*
X32140833Y-54049825D02*
X32093214Y-54145063D01*
X32093214Y-54145063D02*
X32045595Y-54192682D01*
X32045595Y-54192682D02*
X31950357Y-54240301D01*
X31950357Y-54240301D02*
X31569405Y-54240301D01*
X33093214Y-54716492D02*
X32521786Y-54716492D01*
X32807500Y-54716492D02*
X32807500Y-53716492D01*
X32807500Y-53716492D02*
X32712262Y-53859349D01*
X32712262Y-53859349D02*
X32617024Y-53954587D01*
X32617024Y-53954587D02*
X32521786Y-54002206D01*
X32140833Y-89405378D02*
X31807500Y-88929187D01*
X31569405Y-89405378D02*
X31569405Y-88405378D01*
X31569405Y-88405378D02*
X31950357Y-88405378D01*
X31950357Y-88405378D02*
X32045595Y-88452997D01*
X32045595Y-88452997D02*
X32093214Y-88500616D01*
X32093214Y-88500616D02*
X32140833Y-88595854D01*
X32140833Y-88595854D02*
X32140833Y-88738711D01*
X32140833Y-88738711D02*
X32093214Y-88833949D01*
X32093214Y-88833949D02*
X32045595Y-88881568D01*
X32045595Y-88881568D02*
X31950357Y-88929187D01*
X31950357Y-88929187D02*
X31569405Y-88929187D01*
X32617024Y-89405378D02*
X32807500Y-89405378D01*
X32807500Y-89405378D02*
X32902738Y-89357759D01*
X32902738Y-89357759D02*
X32950357Y-89310139D01*
X32950357Y-89310139D02*
X33045595Y-89167282D01*
X33045595Y-89167282D02*
X33093214Y-88976806D01*
X33093214Y-88976806D02*
X33093214Y-88595854D01*
X33093214Y-88595854D02*
X33045595Y-88500616D01*
X33045595Y-88500616D02*
X32997976Y-88452997D01*
X32997976Y-88452997D02*
X32902738Y-88405378D01*
X32902738Y-88405378D02*
X32712262Y-88405378D01*
X32712262Y-88405378D02*
X32617024Y-88452997D01*
X32617024Y-88452997D02*
X32569405Y-88500616D01*
X32569405Y-88500616D02*
X32521786Y-88595854D01*
X32521786Y-88595854D02*
X32521786Y-88833949D01*
X32521786Y-88833949D02*
X32569405Y-88929187D01*
X32569405Y-88929187D02*
X32617024Y-88976806D01*
X32617024Y-88976806D02*
X32712262Y-89024425D01*
X32712262Y-89024425D02*
X32902738Y-89024425D01*
X32902738Y-89024425D02*
X32997976Y-88976806D01*
X32997976Y-88976806D02*
X33045595Y-88929187D01*
X33045595Y-88929187D02*
X33093214Y-88833949D01*
X32140833Y-84449823D02*
X31807500Y-83973632D01*
X31569405Y-84449823D02*
X31569405Y-83449823D01*
X31569405Y-83449823D02*
X31950357Y-83449823D01*
X31950357Y-83449823D02*
X32045595Y-83497442D01*
X32045595Y-83497442D02*
X32093214Y-83545061D01*
X32093214Y-83545061D02*
X32140833Y-83640299D01*
X32140833Y-83640299D02*
X32140833Y-83783156D01*
X32140833Y-83783156D02*
X32093214Y-83878394D01*
X32093214Y-83878394D02*
X32045595Y-83926013D01*
X32045595Y-83926013D02*
X31950357Y-83973632D01*
X31950357Y-83973632D02*
X31569405Y-83973632D01*
X32997976Y-83783156D02*
X32997976Y-84449823D01*
X32759881Y-83402204D02*
X32521786Y-84116489D01*
X32521786Y-84116489D02*
X33140833Y-84116489D01*
X135745714Y-61555927D02*
X135745714Y-60555927D01*
X135745714Y-60555927D02*
X135983809Y-60555927D01*
X135983809Y-60555927D02*
X136126666Y-60603546D01*
X136126666Y-60603546D02*
X136221904Y-60698784D01*
X136221904Y-60698784D02*
X136269523Y-60794022D01*
X136269523Y-60794022D02*
X136317142Y-60984498D01*
X136317142Y-60984498D02*
X136317142Y-61127355D01*
X136317142Y-61127355D02*
X136269523Y-61317831D01*
X136269523Y-61317831D02*
X136221904Y-61413069D01*
X136221904Y-61413069D02*
X136126666Y-61508308D01*
X136126666Y-61508308D02*
X135983809Y-61555927D01*
X135983809Y-61555927D02*
X135745714Y-61555927D01*
X137269523Y-61555927D02*
X136698095Y-61555927D01*
X136983809Y-61555927D02*
X136983809Y-60555927D01*
X136983809Y-60555927D02*
X136888571Y-60698784D01*
X136888571Y-60698784D02*
X136793333Y-60794022D01*
X136793333Y-60794022D02*
X136698095Y-60841641D01*
X137650476Y-60651165D02*
X137698095Y-60603546D01*
X137698095Y-60603546D02*
X137793333Y-60555927D01*
X137793333Y-60555927D02*
X138031428Y-60555927D01*
X138031428Y-60555927D02*
X138126666Y-60603546D01*
X138126666Y-60603546D02*
X138174285Y-60651165D01*
X138174285Y-60651165D02*
X138221904Y-60746403D01*
X138221904Y-60746403D02*
X138221904Y-60841641D01*
X138221904Y-60841641D02*
X138174285Y-60984498D01*
X138174285Y-60984498D02*
X137602857Y-61555927D01*
X137602857Y-61555927D02*
X138221904Y-61555927D01*
X127289642Y-66540743D02*
X126956309Y-66064552D01*
X126718214Y-66540743D02*
X126718214Y-65540743D01*
X126718214Y-65540743D02*
X127099166Y-65540743D01*
X127099166Y-65540743D02*
X127194404Y-65588362D01*
X127194404Y-65588362D02*
X127242023Y-65635981D01*
X127242023Y-65635981D02*
X127289642Y-65731219D01*
X127289642Y-65731219D02*
X127289642Y-65874076D01*
X127289642Y-65874076D02*
X127242023Y-65969314D01*
X127242023Y-65969314D02*
X127194404Y-66016933D01*
X127194404Y-66016933D02*
X127099166Y-66064552D01*
X127099166Y-66064552D02*
X126718214Y-66064552D01*
X128242023Y-66540743D02*
X127670595Y-66540743D01*
X127956309Y-66540743D02*
X127956309Y-65540743D01*
X127956309Y-65540743D02*
X127861071Y-65683600D01*
X127861071Y-65683600D02*
X127765833Y-65778838D01*
X127765833Y-65778838D02*
X127670595Y-65826457D01*
X128575357Y-65540743D02*
X129242023Y-65540743D01*
X129242023Y-65540743D02*
X128813452Y-66540743D01*
X135745714Y-81495188D02*
X135745714Y-80495188D01*
X135745714Y-80495188D02*
X135983809Y-80495188D01*
X135983809Y-80495188D02*
X136126666Y-80542807D01*
X136126666Y-80542807D02*
X136221904Y-80638045D01*
X136221904Y-80638045D02*
X136269523Y-80733283D01*
X136269523Y-80733283D02*
X136317142Y-80923759D01*
X136317142Y-80923759D02*
X136317142Y-81066616D01*
X136317142Y-81066616D02*
X136269523Y-81257092D01*
X136269523Y-81257092D02*
X136221904Y-81352330D01*
X136221904Y-81352330D02*
X136126666Y-81447569D01*
X136126666Y-81447569D02*
X135983809Y-81495188D01*
X135983809Y-81495188D02*
X135745714Y-81495188D01*
X137269523Y-81495188D02*
X136698095Y-81495188D01*
X136983809Y-81495188D02*
X136983809Y-80495188D01*
X136983809Y-80495188D02*
X136888571Y-80638045D01*
X136888571Y-80638045D02*
X136793333Y-80733283D01*
X136793333Y-80733283D02*
X136698095Y-80780902D01*
X138126666Y-80828521D02*
X138126666Y-81495188D01*
X137888571Y-80447569D02*
X137650476Y-81161854D01*
X137650476Y-81161854D02*
X138269523Y-81161854D01*
X135745714Y-71525558D02*
X135745714Y-70525558D01*
X135745714Y-70525558D02*
X135983809Y-70525558D01*
X135983809Y-70525558D02*
X136126666Y-70573177D01*
X136126666Y-70573177D02*
X136221904Y-70668415D01*
X136221904Y-70668415D02*
X136269523Y-70763653D01*
X136269523Y-70763653D02*
X136317142Y-70954129D01*
X136317142Y-70954129D02*
X136317142Y-71096986D01*
X136317142Y-71096986D02*
X136269523Y-71287462D01*
X136269523Y-71287462D02*
X136221904Y-71382700D01*
X136221904Y-71382700D02*
X136126666Y-71477939D01*
X136126666Y-71477939D02*
X135983809Y-71525558D01*
X135983809Y-71525558D02*
X135745714Y-71525558D01*
X137269523Y-71525558D02*
X136698095Y-71525558D01*
X136983809Y-71525558D02*
X136983809Y-70525558D01*
X136983809Y-70525558D02*
X136888571Y-70668415D01*
X136888571Y-70668415D02*
X136793333Y-70763653D01*
X136793333Y-70763653D02*
X136698095Y-70811272D01*
X137602857Y-70525558D02*
X138221904Y-70525558D01*
X138221904Y-70525558D02*
X137888571Y-70906510D01*
X137888571Y-70906510D02*
X138031428Y-70906510D01*
X138031428Y-70906510D02*
X138126666Y-70954129D01*
X138126666Y-70954129D02*
X138174285Y-71001748D01*
X138174285Y-71001748D02*
X138221904Y-71096986D01*
X138221904Y-71096986D02*
X138221904Y-71335081D01*
X138221904Y-71335081D02*
X138174285Y-71430319D01*
X138174285Y-71430319D02*
X138126666Y-71477939D01*
X138126666Y-71477939D02*
X138031428Y-71525558D01*
X138031428Y-71525558D02*
X137745714Y-71525558D01*
X137745714Y-71525558D02*
X137650476Y-71477939D01*
X137650476Y-71477939D02*
X137602857Y-71430319D01*
X127317142Y-96449634D02*
X126983809Y-95973443D01*
X126745714Y-96449634D02*
X126745714Y-95449634D01*
X126745714Y-95449634D02*
X127126666Y-95449634D01*
X127126666Y-95449634D02*
X127221904Y-95497253D01*
X127221904Y-95497253D02*
X127269523Y-95544872D01*
X127269523Y-95544872D02*
X127317142Y-95640110D01*
X127317142Y-95640110D02*
X127317142Y-95782967D01*
X127317142Y-95782967D02*
X127269523Y-95878205D01*
X127269523Y-95878205D02*
X127221904Y-95925824D01*
X127221904Y-95925824D02*
X127126666Y-95973443D01*
X127126666Y-95973443D02*
X126745714Y-95973443D01*
X127698095Y-95544872D02*
X127745714Y-95497253D01*
X127745714Y-95497253D02*
X127840952Y-95449634D01*
X127840952Y-95449634D02*
X128079047Y-95449634D01*
X128079047Y-95449634D02*
X128174285Y-95497253D01*
X128174285Y-95497253D02*
X128221904Y-95544872D01*
X128221904Y-95544872D02*
X128269523Y-95640110D01*
X128269523Y-95640110D02*
X128269523Y-95735348D01*
X128269523Y-95735348D02*
X128221904Y-95878205D01*
X128221904Y-95878205D02*
X127650476Y-96449634D01*
X127650476Y-96449634D02*
X128269523Y-96449634D01*
X128888571Y-95449634D02*
X128983809Y-95449634D01*
X128983809Y-95449634D02*
X129079047Y-95497253D01*
X129079047Y-95497253D02*
X129126666Y-95544872D01*
X129126666Y-95544872D02*
X129174285Y-95640110D01*
X129174285Y-95640110D02*
X129221904Y-95830586D01*
X129221904Y-95830586D02*
X129221904Y-96068681D01*
X129221904Y-96068681D02*
X129174285Y-96259157D01*
X129174285Y-96259157D02*
X129126666Y-96354395D01*
X129126666Y-96354395D02*
X129079047Y-96402015D01*
X129079047Y-96402015D02*
X128983809Y-96449634D01*
X128983809Y-96449634D02*
X128888571Y-96449634D01*
X128888571Y-96449634D02*
X128793333Y-96402015D01*
X128793333Y-96402015D02*
X128745714Y-96354395D01*
X128745714Y-96354395D02*
X128698095Y-96259157D01*
X128698095Y-96259157D02*
X128650476Y-96068681D01*
X128650476Y-96068681D02*
X128650476Y-95830586D01*
X128650476Y-95830586D02*
X128698095Y-95640110D01*
X128698095Y-95640110D02*
X128745714Y-95544872D01*
X128745714Y-95544872D02*
X128793333Y-95497253D01*
X128793333Y-95497253D02*
X128888571Y-95449634D01*
X22541905Y-64627602D02*
X22541905Y-63627602D01*
X22541905Y-63627602D02*
X22780000Y-63627602D01*
X22780000Y-63627602D02*
X22922857Y-63675221D01*
X22922857Y-63675221D02*
X23018095Y-63770459D01*
X23018095Y-63770459D02*
X23065714Y-63865697D01*
X23065714Y-63865697D02*
X23113333Y-64056173D01*
X23113333Y-64056173D02*
X23113333Y-64199030D01*
X23113333Y-64199030D02*
X23065714Y-64389506D01*
X23065714Y-64389506D02*
X23018095Y-64484744D01*
X23018095Y-64484744D02*
X22922857Y-64579983D01*
X22922857Y-64579983D02*
X22780000Y-64627602D01*
X22780000Y-64627602D02*
X22541905Y-64627602D01*
X23494286Y-63722840D02*
X23541905Y-63675221D01*
X23541905Y-63675221D02*
X23637143Y-63627602D01*
X23637143Y-63627602D02*
X23875238Y-63627602D01*
X23875238Y-63627602D02*
X23970476Y-63675221D01*
X23970476Y-63675221D02*
X24018095Y-63722840D01*
X24018095Y-63722840D02*
X24065714Y-63818078D01*
X24065714Y-63818078D02*
X24065714Y-63913316D01*
X24065714Y-63913316D02*
X24018095Y-64056173D01*
X24018095Y-64056173D02*
X23446667Y-64627602D01*
X23446667Y-64627602D02*
X24065714Y-64627602D01*
X31688095Y-122204819D02*
X31688095Y-121204819D01*
X31688095Y-121681009D02*
X32259523Y-121681009D01*
X32259523Y-122204819D02*
X32259523Y-121204819D01*
X32640476Y-121204819D02*
X33259523Y-121204819D01*
X33259523Y-121204819D02*
X32926190Y-121585771D01*
X32926190Y-121585771D02*
X33069047Y-121585771D01*
X33069047Y-121585771D02*
X33164285Y-121633390D01*
X33164285Y-121633390D02*
X33211904Y-121681009D01*
X33211904Y-121681009D02*
X33259523Y-121776247D01*
X33259523Y-121776247D02*
X33259523Y-122014342D01*
X33259523Y-122014342D02*
X33211904Y-122109580D01*
X33211904Y-122109580D02*
X33164285Y-122157200D01*
X33164285Y-122157200D02*
X33069047Y-122204819D01*
X33069047Y-122204819D02*
X32783333Y-122204819D01*
X32783333Y-122204819D02*
X32688095Y-122157200D01*
X32688095Y-122157200D02*
X32640476Y-122109580D01*
X127289642Y-56571112D02*
X126956309Y-56094921D01*
X126718214Y-56571112D02*
X126718214Y-55571112D01*
X126718214Y-55571112D02*
X127099166Y-55571112D01*
X127099166Y-55571112D02*
X127194404Y-55618731D01*
X127194404Y-55618731D02*
X127242023Y-55666350D01*
X127242023Y-55666350D02*
X127289642Y-55761588D01*
X127289642Y-55761588D02*
X127289642Y-55904445D01*
X127289642Y-55904445D02*
X127242023Y-55999683D01*
X127242023Y-55999683D02*
X127194404Y-56047302D01*
X127194404Y-56047302D02*
X127099166Y-56094921D01*
X127099166Y-56094921D02*
X126718214Y-56094921D01*
X128242023Y-56571112D02*
X127670595Y-56571112D01*
X127956309Y-56571112D02*
X127956309Y-55571112D01*
X127956309Y-55571112D02*
X127861071Y-55713969D01*
X127861071Y-55713969D02*
X127765833Y-55809207D01*
X127765833Y-55809207D02*
X127670595Y-55856826D01*
X129099166Y-55571112D02*
X128908690Y-55571112D01*
X128908690Y-55571112D02*
X128813452Y-55618731D01*
X128813452Y-55618731D02*
X128765833Y-55666350D01*
X128765833Y-55666350D02*
X128670595Y-55809207D01*
X128670595Y-55809207D02*
X128622976Y-55999683D01*
X128622976Y-55999683D02*
X128622976Y-56380635D01*
X128622976Y-56380635D02*
X128670595Y-56475873D01*
X128670595Y-56475873D02*
X128718214Y-56523493D01*
X128718214Y-56523493D02*
X128813452Y-56571112D01*
X128813452Y-56571112D02*
X129003928Y-56571112D01*
X129003928Y-56571112D02*
X129099166Y-56523493D01*
X129099166Y-56523493D02*
X129146785Y-56475873D01*
X129146785Y-56475873D02*
X129194404Y-56380635D01*
X129194404Y-56380635D02*
X129194404Y-56142540D01*
X129194404Y-56142540D02*
X129146785Y-56047302D01*
X129146785Y-56047302D02*
X129099166Y-55999683D01*
X129099166Y-55999683D02*
X129003928Y-55952064D01*
X129003928Y-55952064D02*
X128813452Y-55952064D01*
X128813452Y-55952064D02*
X128718214Y-55999683D01*
X128718214Y-55999683D02*
X128670595Y-56047302D01*
X128670595Y-56047302D02*
X128622976Y-56142540D01*
X22541905Y-54716492D02*
X22541905Y-53716492D01*
X22541905Y-53716492D02*
X22780000Y-53716492D01*
X22780000Y-53716492D02*
X22922857Y-53764111D01*
X22922857Y-53764111D02*
X23018095Y-53859349D01*
X23018095Y-53859349D02*
X23065714Y-53954587D01*
X23065714Y-53954587D02*
X23113333Y-54145063D01*
X23113333Y-54145063D02*
X23113333Y-54287920D01*
X23113333Y-54287920D02*
X23065714Y-54478396D01*
X23065714Y-54478396D02*
X23018095Y-54573634D01*
X23018095Y-54573634D02*
X22922857Y-54668873D01*
X22922857Y-54668873D02*
X22780000Y-54716492D01*
X22780000Y-54716492D02*
X22541905Y-54716492D01*
X24065714Y-54716492D02*
X23494286Y-54716492D01*
X23780000Y-54716492D02*
X23780000Y-53716492D01*
X23780000Y-53716492D02*
X23684762Y-53859349D01*
X23684762Y-53859349D02*
X23589524Y-53954587D01*
X23589524Y-53954587D02*
X23494286Y-54002206D01*
X135745714Y-66540743D02*
X135745714Y-65540743D01*
X135745714Y-65540743D02*
X135983809Y-65540743D01*
X135983809Y-65540743D02*
X136126666Y-65588362D01*
X136126666Y-65588362D02*
X136221904Y-65683600D01*
X136221904Y-65683600D02*
X136269523Y-65778838D01*
X136269523Y-65778838D02*
X136317142Y-65969314D01*
X136317142Y-65969314D02*
X136317142Y-66112171D01*
X136317142Y-66112171D02*
X136269523Y-66302647D01*
X136269523Y-66302647D02*
X136221904Y-66397885D01*
X136221904Y-66397885D02*
X136126666Y-66493124D01*
X136126666Y-66493124D02*
X135983809Y-66540743D01*
X135983809Y-66540743D02*
X135745714Y-66540743D01*
X137269523Y-66540743D02*
X136698095Y-66540743D01*
X136983809Y-66540743D02*
X136983809Y-65540743D01*
X136983809Y-65540743D02*
X136888571Y-65683600D01*
X136888571Y-65683600D02*
X136793333Y-65778838D01*
X136793333Y-65778838D02*
X136698095Y-65826457D01*
X137602857Y-65540743D02*
X138269523Y-65540743D01*
X138269523Y-65540743D02*
X137840952Y-66540743D01*
X31688095Y-17704819D02*
X31688095Y-16704819D01*
X31688095Y-17181009D02*
X32259523Y-17181009D01*
X32259523Y-17704819D02*
X32259523Y-16704819D01*
X33259523Y-17704819D02*
X32688095Y-17704819D01*
X32973809Y-17704819D02*
X32973809Y-16704819D01*
X32973809Y-16704819D02*
X32878571Y-16847676D01*
X32878571Y-16847676D02*
X32783333Y-16942914D01*
X32783333Y-16942914D02*
X32688095Y-16990533D01*
X135745714Y-91464819D02*
X135745714Y-90464819D01*
X135745714Y-90464819D02*
X135983809Y-90464819D01*
X135983809Y-90464819D02*
X136126666Y-90512438D01*
X136126666Y-90512438D02*
X136221904Y-90607676D01*
X136221904Y-90607676D02*
X136269523Y-90702914D01*
X136269523Y-90702914D02*
X136317142Y-90893390D01*
X136317142Y-90893390D02*
X136317142Y-91036247D01*
X136317142Y-91036247D02*
X136269523Y-91226723D01*
X136269523Y-91226723D02*
X136221904Y-91321961D01*
X136221904Y-91321961D02*
X136126666Y-91417200D01*
X136126666Y-91417200D02*
X135983809Y-91464819D01*
X135983809Y-91464819D02*
X135745714Y-91464819D01*
X137269523Y-91464819D02*
X136698095Y-91464819D01*
X136983809Y-91464819D02*
X136983809Y-90464819D01*
X136983809Y-90464819D02*
X136888571Y-90607676D01*
X136888571Y-90607676D02*
X136793333Y-90702914D01*
X136793333Y-90702914D02*
X136698095Y-90750533D01*
X138174285Y-90464819D02*
X137698095Y-90464819D01*
X137698095Y-90464819D02*
X137650476Y-90941009D01*
X137650476Y-90941009D02*
X137698095Y-90893390D01*
X137698095Y-90893390D02*
X137793333Y-90845771D01*
X137793333Y-90845771D02*
X138031428Y-90845771D01*
X138031428Y-90845771D02*
X138126666Y-90893390D01*
X138126666Y-90893390D02*
X138174285Y-90941009D01*
X138174285Y-90941009D02*
X138221904Y-91036247D01*
X138221904Y-91036247D02*
X138221904Y-91274342D01*
X138221904Y-91274342D02*
X138174285Y-91369580D01*
X138174285Y-91369580D02*
X138126666Y-91417200D01*
X138126666Y-91417200D02*
X138031428Y-91464819D01*
X138031428Y-91464819D02*
X137793333Y-91464819D01*
X137793333Y-91464819D02*
X137698095Y-91417200D01*
X137698095Y-91417200D02*
X137650476Y-91369580D01*
X127289642Y-61555927D02*
X126956309Y-61079736D01*
X126718214Y-61555927D02*
X126718214Y-60555927D01*
X126718214Y-60555927D02*
X127099166Y-60555927D01*
X127099166Y-60555927D02*
X127194404Y-60603546D01*
X127194404Y-60603546D02*
X127242023Y-60651165D01*
X127242023Y-60651165D02*
X127289642Y-60746403D01*
X127289642Y-60746403D02*
X127289642Y-60889260D01*
X127289642Y-60889260D02*
X127242023Y-60984498D01*
X127242023Y-60984498D02*
X127194404Y-61032117D01*
X127194404Y-61032117D02*
X127099166Y-61079736D01*
X127099166Y-61079736D02*
X126718214Y-61079736D01*
X128242023Y-61555927D02*
X127670595Y-61555927D01*
X127956309Y-61555927D02*
X127956309Y-60555927D01*
X127956309Y-60555927D02*
X127861071Y-60698784D01*
X127861071Y-60698784D02*
X127765833Y-60794022D01*
X127765833Y-60794022D02*
X127670595Y-60841641D01*
X128622976Y-60651165D02*
X128670595Y-60603546D01*
X128670595Y-60603546D02*
X128765833Y-60555927D01*
X128765833Y-60555927D02*
X129003928Y-60555927D01*
X129003928Y-60555927D02*
X129099166Y-60603546D01*
X129099166Y-60603546D02*
X129146785Y-60651165D01*
X129146785Y-60651165D02*
X129194404Y-60746403D01*
X129194404Y-60746403D02*
X129194404Y-60841641D01*
X129194404Y-60841641D02*
X129146785Y-60984498D01*
X129146785Y-60984498D02*
X128575357Y-61555927D01*
X128575357Y-61555927D02*
X129194404Y-61555927D01*
X135745714Y-86480004D02*
X135745714Y-85480004D01*
X135745714Y-85480004D02*
X135983809Y-85480004D01*
X135983809Y-85480004D02*
X136126666Y-85527623D01*
X136126666Y-85527623D02*
X136221904Y-85622861D01*
X136221904Y-85622861D02*
X136269523Y-85718099D01*
X136269523Y-85718099D02*
X136317142Y-85908575D01*
X136317142Y-85908575D02*
X136317142Y-86051432D01*
X136317142Y-86051432D02*
X136269523Y-86241908D01*
X136269523Y-86241908D02*
X136221904Y-86337146D01*
X136221904Y-86337146D02*
X136126666Y-86432385D01*
X136126666Y-86432385D02*
X135983809Y-86480004D01*
X135983809Y-86480004D02*
X135745714Y-86480004D01*
X137269523Y-86480004D02*
X136698095Y-86480004D01*
X136983809Y-86480004D02*
X136983809Y-85480004D01*
X136983809Y-85480004D02*
X136888571Y-85622861D01*
X136888571Y-85622861D02*
X136793333Y-85718099D01*
X136793333Y-85718099D02*
X136698095Y-85765718D01*
X137745714Y-86480004D02*
X137936190Y-86480004D01*
X137936190Y-86480004D02*
X138031428Y-86432385D01*
X138031428Y-86432385D02*
X138079047Y-86384765D01*
X138079047Y-86384765D02*
X138174285Y-86241908D01*
X138174285Y-86241908D02*
X138221904Y-86051432D01*
X138221904Y-86051432D02*
X138221904Y-85670480D01*
X138221904Y-85670480D02*
X138174285Y-85575242D01*
X138174285Y-85575242D02*
X138126666Y-85527623D01*
X138126666Y-85527623D02*
X138031428Y-85480004D01*
X138031428Y-85480004D02*
X137840952Y-85480004D01*
X137840952Y-85480004D02*
X137745714Y-85527623D01*
X137745714Y-85527623D02*
X137698095Y-85575242D01*
X137698095Y-85575242D02*
X137650476Y-85670480D01*
X137650476Y-85670480D02*
X137650476Y-85908575D01*
X137650476Y-85908575D02*
X137698095Y-86003813D01*
X137698095Y-86003813D02*
X137745714Y-86051432D01*
X137745714Y-86051432D02*
X137840952Y-86099051D01*
X137840952Y-86099051D02*
X138031428Y-86099051D01*
X138031428Y-86099051D02*
X138126666Y-86051432D01*
X138126666Y-86051432D02*
X138174285Y-86003813D01*
X138174285Y-86003813D02*
X138221904Y-85908575D01*
X135745714Y-51586297D02*
X135745714Y-50586297D01*
X135745714Y-50586297D02*
X135983809Y-50586297D01*
X135983809Y-50586297D02*
X136126666Y-50633916D01*
X136126666Y-50633916D02*
X136221904Y-50729154D01*
X136221904Y-50729154D02*
X136269523Y-50824392D01*
X136269523Y-50824392D02*
X136317142Y-51014868D01*
X136317142Y-51014868D02*
X136317142Y-51157725D01*
X136317142Y-51157725D02*
X136269523Y-51348201D01*
X136269523Y-51348201D02*
X136221904Y-51443439D01*
X136221904Y-51443439D02*
X136126666Y-51538678D01*
X136126666Y-51538678D02*
X135983809Y-51586297D01*
X135983809Y-51586297D02*
X135745714Y-51586297D01*
X137269523Y-51586297D02*
X136698095Y-51586297D01*
X136983809Y-51586297D02*
X136983809Y-50586297D01*
X136983809Y-50586297D02*
X136888571Y-50729154D01*
X136888571Y-50729154D02*
X136793333Y-50824392D01*
X136793333Y-50824392D02*
X136698095Y-50872011D01*
X138221904Y-51586297D02*
X137650476Y-51586297D01*
X137936190Y-51586297D02*
X137936190Y-50586297D01*
X137936190Y-50586297D02*
X137840952Y-50729154D01*
X137840952Y-50729154D02*
X137745714Y-50824392D01*
X137745714Y-50824392D02*
X137650476Y-50872011D01*
X22541905Y-59672047D02*
X22541905Y-58672047D01*
X22541905Y-58672047D02*
X22780000Y-58672047D01*
X22780000Y-58672047D02*
X22922857Y-58719666D01*
X22922857Y-58719666D02*
X23018095Y-58814904D01*
X23018095Y-58814904D02*
X23065714Y-58910142D01*
X23065714Y-58910142D02*
X23113333Y-59100618D01*
X23113333Y-59100618D02*
X23113333Y-59243475D01*
X23113333Y-59243475D02*
X23065714Y-59433951D01*
X23065714Y-59433951D02*
X23018095Y-59529189D01*
X23018095Y-59529189D02*
X22922857Y-59624428D01*
X22922857Y-59624428D02*
X22780000Y-59672047D01*
X22780000Y-59672047D02*
X22541905Y-59672047D01*
X23970476Y-58672047D02*
X23780000Y-58672047D01*
X23780000Y-58672047D02*
X23684762Y-58719666D01*
X23684762Y-58719666D02*
X23637143Y-58767285D01*
X23637143Y-58767285D02*
X23541905Y-58910142D01*
X23541905Y-58910142D02*
X23494286Y-59100618D01*
X23494286Y-59100618D02*
X23494286Y-59481570D01*
X23494286Y-59481570D02*
X23541905Y-59576808D01*
X23541905Y-59576808D02*
X23589524Y-59624428D01*
X23589524Y-59624428D02*
X23684762Y-59672047D01*
X23684762Y-59672047D02*
X23875238Y-59672047D01*
X23875238Y-59672047D02*
X23970476Y-59624428D01*
X23970476Y-59624428D02*
X24018095Y-59576808D01*
X24018095Y-59576808D02*
X24065714Y-59481570D01*
X24065714Y-59481570D02*
X24065714Y-59243475D01*
X24065714Y-59243475D02*
X24018095Y-59148237D01*
X24018095Y-59148237D02*
X23970476Y-59100618D01*
X23970476Y-59100618D02*
X23875238Y-59052999D01*
X23875238Y-59052999D02*
X23684762Y-59052999D01*
X23684762Y-59052999D02*
X23589524Y-59100618D01*
X23589524Y-59100618D02*
X23541905Y-59148237D01*
X23541905Y-59148237D02*
X23494286Y-59243475D01*
X126688095Y-17704819D02*
X126688095Y-16704819D01*
X126688095Y-17181009D02*
X127259523Y-17181009D01*
X127259523Y-17704819D02*
X127259523Y-16704819D01*
X127688095Y-16800057D02*
X127735714Y-16752438D01*
X127735714Y-16752438D02*
X127830952Y-16704819D01*
X127830952Y-16704819D02*
X128069047Y-16704819D01*
X128069047Y-16704819D02*
X128164285Y-16752438D01*
X128164285Y-16752438D02*
X128211904Y-16800057D01*
X128211904Y-16800057D02*
X128259523Y-16895295D01*
X128259523Y-16895295D02*
X128259523Y-16990533D01*
X128259523Y-16990533D02*
X128211904Y-17133390D01*
X128211904Y-17133390D02*
X127640476Y-17704819D01*
X127640476Y-17704819D02*
X128259523Y-17704819D01*
X127289642Y-86480004D02*
X126956309Y-86003813D01*
X126718214Y-86480004D02*
X126718214Y-85480004D01*
X126718214Y-85480004D02*
X127099166Y-85480004D01*
X127099166Y-85480004D02*
X127194404Y-85527623D01*
X127194404Y-85527623D02*
X127242023Y-85575242D01*
X127242023Y-85575242D02*
X127289642Y-85670480D01*
X127289642Y-85670480D02*
X127289642Y-85813337D01*
X127289642Y-85813337D02*
X127242023Y-85908575D01*
X127242023Y-85908575D02*
X127194404Y-85956194D01*
X127194404Y-85956194D02*
X127099166Y-86003813D01*
X127099166Y-86003813D02*
X126718214Y-86003813D01*
X128242023Y-86480004D02*
X127670595Y-86480004D01*
X127956309Y-86480004D02*
X127956309Y-85480004D01*
X127956309Y-85480004D02*
X127861071Y-85622861D01*
X127861071Y-85622861D02*
X127765833Y-85718099D01*
X127765833Y-85718099D02*
X127670595Y-85765718D01*
X128718214Y-86480004D02*
X128908690Y-86480004D01*
X128908690Y-86480004D02*
X129003928Y-86432385D01*
X129003928Y-86432385D02*
X129051547Y-86384765D01*
X129051547Y-86384765D02*
X129146785Y-86241908D01*
X129146785Y-86241908D02*
X129194404Y-86051432D01*
X129194404Y-86051432D02*
X129194404Y-85670480D01*
X129194404Y-85670480D02*
X129146785Y-85575242D01*
X129146785Y-85575242D02*
X129099166Y-85527623D01*
X129099166Y-85527623D02*
X129003928Y-85480004D01*
X129003928Y-85480004D02*
X128813452Y-85480004D01*
X128813452Y-85480004D02*
X128718214Y-85527623D01*
X128718214Y-85527623D02*
X128670595Y-85575242D01*
X128670595Y-85575242D02*
X128622976Y-85670480D01*
X128622976Y-85670480D02*
X128622976Y-85908575D01*
X128622976Y-85908575D02*
X128670595Y-86003813D01*
X128670595Y-86003813D02*
X128718214Y-86051432D01*
X128718214Y-86051432D02*
X128813452Y-86099051D01*
X128813452Y-86099051D02*
X129003928Y-86099051D01*
X129003928Y-86099051D02*
X129099166Y-86051432D01*
X129099166Y-86051432D02*
X129146785Y-86003813D01*
X129146785Y-86003813D02*
X129194404Y-85908575D01*
X31639642Y-99316488D02*
X31306309Y-98840297D01*
X31068214Y-99316488D02*
X31068214Y-98316488D01*
X31068214Y-98316488D02*
X31449166Y-98316488D01*
X31449166Y-98316488D02*
X31544404Y-98364107D01*
X31544404Y-98364107D02*
X31592023Y-98411726D01*
X31592023Y-98411726D02*
X31639642Y-98506964D01*
X31639642Y-98506964D02*
X31639642Y-98649821D01*
X31639642Y-98649821D02*
X31592023Y-98745059D01*
X31592023Y-98745059D02*
X31544404Y-98792678D01*
X31544404Y-98792678D02*
X31449166Y-98840297D01*
X31449166Y-98840297D02*
X31068214Y-98840297D01*
X32592023Y-99316488D02*
X32020595Y-99316488D01*
X32306309Y-99316488D02*
X32306309Y-98316488D01*
X32306309Y-98316488D02*
X32211071Y-98459345D01*
X32211071Y-98459345D02*
X32115833Y-98554583D01*
X32115833Y-98554583D02*
X32020595Y-98602202D01*
X33211071Y-98316488D02*
X33306309Y-98316488D01*
X33306309Y-98316488D02*
X33401547Y-98364107D01*
X33401547Y-98364107D02*
X33449166Y-98411726D01*
X33449166Y-98411726D02*
X33496785Y-98506964D01*
X33496785Y-98506964D02*
X33544404Y-98697440D01*
X33544404Y-98697440D02*
X33544404Y-98935535D01*
X33544404Y-98935535D02*
X33496785Y-99126011D01*
X33496785Y-99126011D02*
X33449166Y-99221249D01*
X33449166Y-99221249D02*
X33401547Y-99268869D01*
X33401547Y-99268869D02*
X33306309Y-99316488D01*
X33306309Y-99316488D02*
X33211071Y-99316488D01*
X33211071Y-99316488D02*
X33115833Y-99268869D01*
X33115833Y-99268869D02*
X33068214Y-99221249D01*
X33068214Y-99221249D02*
X33020595Y-99126011D01*
X33020595Y-99126011D02*
X32972976Y-98935535D01*
X32972976Y-98935535D02*
X32972976Y-98697440D01*
X32972976Y-98697440D02*
X33020595Y-98506964D01*
X33020595Y-98506964D02*
X33068214Y-98411726D01*
X33068214Y-98411726D02*
X33115833Y-98364107D01*
X33115833Y-98364107D02*
X33211071Y-98316488D01*
X127289642Y-51586297D02*
X126956309Y-51110106D01*
X126718214Y-51586297D02*
X126718214Y-50586297D01*
X126718214Y-50586297D02*
X127099166Y-50586297D01*
X127099166Y-50586297D02*
X127194404Y-50633916D01*
X127194404Y-50633916D02*
X127242023Y-50681535D01*
X127242023Y-50681535D02*
X127289642Y-50776773D01*
X127289642Y-50776773D02*
X127289642Y-50919630D01*
X127289642Y-50919630D02*
X127242023Y-51014868D01*
X127242023Y-51014868D02*
X127194404Y-51062487D01*
X127194404Y-51062487D02*
X127099166Y-51110106D01*
X127099166Y-51110106D02*
X126718214Y-51110106D01*
X128242023Y-51586297D02*
X127670595Y-51586297D01*
X127956309Y-51586297D02*
X127956309Y-50586297D01*
X127956309Y-50586297D02*
X127861071Y-50729154D01*
X127861071Y-50729154D02*
X127765833Y-50824392D01*
X127765833Y-50824392D02*
X127670595Y-50872011D01*
X129194404Y-51586297D02*
X128622976Y-51586297D01*
X128908690Y-51586297D02*
X128908690Y-50586297D01*
X128908690Y-50586297D02*
X128813452Y-50729154D01*
X128813452Y-50729154D02*
X128718214Y-50824392D01*
X128718214Y-50824392D02*
X128622976Y-50872011D01*
X127289642Y-71525558D02*
X126956309Y-71049367D01*
X126718214Y-71525558D02*
X126718214Y-70525558D01*
X126718214Y-70525558D02*
X127099166Y-70525558D01*
X127099166Y-70525558D02*
X127194404Y-70573177D01*
X127194404Y-70573177D02*
X127242023Y-70620796D01*
X127242023Y-70620796D02*
X127289642Y-70716034D01*
X127289642Y-70716034D02*
X127289642Y-70858891D01*
X127289642Y-70858891D02*
X127242023Y-70954129D01*
X127242023Y-70954129D02*
X127194404Y-71001748D01*
X127194404Y-71001748D02*
X127099166Y-71049367D01*
X127099166Y-71049367D02*
X126718214Y-71049367D01*
X128242023Y-71525558D02*
X127670595Y-71525558D01*
X127956309Y-71525558D02*
X127956309Y-70525558D01*
X127956309Y-70525558D02*
X127861071Y-70668415D01*
X127861071Y-70668415D02*
X127765833Y-70763653D01*
X127765833Y-70763653D02*
X127670595Y-70811272D01*
X128575357Y-70525558D02*
X129194404Y-70525558D01*
X129194404Y-70525558D02*
X128861071Y-70906510D01*
X128861071Y-70906510D02*
X129003928Y-70906510D01*
X129003928Y-70906510D02*
X129099166Y-70954129D01*
X129099166Y-70954129D02*
X129146785Y-71001748D01*
X129146785Y-71001748D02*
X129194404Y-71096986D01*
X129194404Y-71096986D02*
X129194404Y-71335081D01*
X129194404Y-71335081D02*
X129146785Y-71430319D01*
X129146785Y-71430319D02*
X129099166Y-71477939D01*
X129099166Y-71477939D02*
X129003928Y-71525558D01*
X129003928Y-71525558D02*
X128718214Y-71525558D01*
X128718214Y-71525558D02*
X128622976Y-71477939D01*
X128622976Y-71477939D02*
X128575357Y-71430319D01*
X22541905Y-74538712D02*
X22541905Y-73538712D01*
X22541905Y-73538712D02*
X22780000Y-73538712D01*
X22780000Y-73538712D02*
X22922857Y-73586331D01*
X22922857Y-73586331D02*
X23018095Y-73681569D01*
X23018095Y-73681569D02*
X23065714Y-73776807D01*
X23065714Y-73776807D02*
X23113333Y-73967283D01*
X23113333Y-73967283D02*
X23113333Y-74110140D01*
X23113333Y-74110140D02*
X23065714Y-74300616D01*
X23065714Y-74300616D02*
X23018095Y-74395854D01*
X23018095Y-74395854D02*
X22922857Y-74491093D01*
X22922857Y-74491093D02*
X22780000Y-74538712D01*
X22780000Y-74538712D02*
X22541905Y-74538712D01*
X23446667Y-73538712D02*
X24065714Y-73538712D01*
X24065714Y-73538712D02*
X23732381Y-73919664D01*
X23732381Y-73919664D02*
X23875238Y-73919664D01*
X23875238Y-73919664D02*
X23970476Y-73967283D01*
X23970476Y-73967283D02*
X24018095Y-74014902D01*
X24018095Y-74014902D02*
X24065714Y-74110140D01*
X24065714Y-74110140D02*
X24065714Y-74348235D01*
X24065714Y-74348235D02*
X24018095Y-74443473D01*
X24018095Y-74443473D02*
X23970476Y-74491093D01*
X23970476Y-74491093D02*
X23875238Y-74538712D01*
X23875238Y-74538712D02*
X23589524Y-74538712D01*
X23589524Y-74538712D02*
X23494286Y-74491093D01*
X23494286Y-74491093D02*
X23446667Y-74443473D01*
X126688095Y-122204819D02*
X126688095Y-121204819D01*
X126688095Y-121681009D02*
X127259523Y-121681009D01*
X127259523Y-122204819D02*
X127259523Y-121204819D01*
X128164285Y-121538152D02*
X128164285Y-122204819D01*
X127926190Y-121157200D02*
X127688095Y-121871485D01*
X127688095Y-121871485D02*
X128307142Y-121871485D01*
X22541905Y-79494268D02*
X22541905Y-78494268D01*
X22541905Y-78494268D02*
X22780000Y-78494268D01*
X22780000Y-78494268D02*
X22922857Y-78541887D01*
X22922857Y-78541887D02*
X23018095Y-78637125D01*
X23018095Y-78637125D02*
X23065714Y-78732363D01*
X23065714Y-78732363D02*
X23113333Y-78922839D01*
X23113333Y-78922839D02*
X23113333Y-79065696D01*
X23113333Y-79065696D02*
X23065714Y-79256172D01*
X23065714Y-79256172D02*
X23018095Y-79351410D01*
X23018095Y-79351410D02*
X22922857Y-79446649D01*
X22922857Y-79446649D02*
X22780000Y-79494268D01*
X22780000Y-79494268D02*
X22541905Y-79494268D01*
X23684762Y-78922839D02*
X23589524Y-78875220D01*
X23589524Y-78875220D02*
X23541905Y-78827601D01*
X23541905Y-78827601D02*
X23494286Y-78732363D01*
X23494286Y-78732363D02*
X23494286Y-78684744D01*
X23494286Y-78684744D02*
X23541905Y-78589506D01*
X23541905Y-78589506D02*
X23589524Y-78541887D01*
X23589524Y-78541887D02*
X23684762Y-78494268D01*
X23684762Y-78494268D02*
X23875238Y-78494268D01*
X23875238Y-78494268D02*
X23970476Y-78541887D01*
X23970476Y-78541887D02*
X24018095Y-78589506D01*
X24018095Y-78589506D02*
X24065714Y-78684744D01*
X24065714Y-78684744D02*
X24065714Y-78732363D01*
X24065714Y-78732363D02*
X24018095Y-78827601D01*
X24018095Y-78827601D02*
X23970476Y-78875220D01*
X23970476Y-78875220D02*
X23875238Y-78922839D01*
X23875238Y-78922839D02*
X23684762Y-78922839D01*
X23684762Y-78922839D02*
X23589524Y-78970458D01*
X23589524Y-78970458D02*
X23541905Y-79018077D01*
X23541905Y-79018077D02*
X23494286Y-79113315D01*
X23494286Y-79113315D02*
X23494286Y-79303791D01*
X23494286Y-79303791D02*
X23541905Y-79399029D01*
X23541905Y-79399029D02*
X23589524Y-79446649D01*
X23589524Y-79446649D02*
X23684762Y-79494268D01*
X23684762Y-79494268D02*
X23875238Y-79494268D01*
X23875238Y-79494268D02*
X23970476Y-79446649D01*
X23970476Y-79446649D02*
X24018095Y-79399029D01*
X24018095Y-79399029D02*
X24065714Y-79303791D01*
X24065714Y-79303791D02*
X24065714Y-79113315D01*
X24065714Y-79113315D02*
X24018095Y-79018077D01*
X24018095Y-79018077D02*
X23970476Y-78970458D01*
X23970476Y-78970458D02*
X23875238Y-78922839D01*
X32140833Y-64627602D02*
X31807500Y-64151411D01*
X31569405Y-64627602D02*
X31569405Y-63627602D01*
X31569405Y-63627602D02*
X31950357Y-63627602D01*
X31950357Y-63627602D02*
X32045595Y-63675221D01*
X32045595Y-63675221D02*
X32093214Y-63722840D01*
X32093214Y-63722840D02*
X32140833Y-63818078D01*
X32140833Y-63818078D02*
X32140833Y-63960935D01*
X32140833Y-63960935D02*
X32093214Y-64056173D01*
X32093214Y-64056173D02*
X32045595Y-64103792D01*
X32045595Y-64103792D02*
X31950357Y-64151411D01*
X31950357Y-64151411D02*
X31569405Y-64151411D01*
X32521786Y-63722840D02*
X32569405Y-63675221D01*
X32569405Y-63675221D02*
X32664643Y-63627602D01*
X32664643Y-63627602D02*
X32902738Y-63627602D01*
X32902738Y-63627602D02*
X32997976Y-63675221D01*
X32997976Y-63675221D02*
X33045595Y-63722840D01*
X33045595Y-63722840D02*
X33093214Y-63818078D01*
X33093214Y-63818078D02*
X33093214Y-63913316D01*
X33093214Y-63913316D02*
X33045595Y-64056173D01*
X33045595Y-64056173D02*
X32474167Y-64627602D01*
X32474167Y-64627602D02*
X33093214Y-64627602D01*
X22541905Y-94360933D02*
X22541905Y-93360933D01*
X22541905Y-93360933D02*
X22780000Y-93360933D01*
X22780000Y-93360933D02*
X22922857Y-93408552D01*
X22922857Y-93408552D02*
X23018095Y-93503790D01*
X23018095Y-93503790D02*
X23065714Y-93599028D01*
X23065714Y-93599028D02*
X23113333Y-93789504D01*
X23113333Y-93789504D02*
X23113333Y-93932361D01*
X23113333Y-93932361D02*
X23065714Y-94122837D01*
X23065714Y-94122837D02*
X23018095Y-94218075D01*
X23018095Y-94218075D02*
X22922857Y-94313314D01*
X22922857Y-94313314D02*
X22780000Y-94360933D01*
X22780000Y-94360933D02*
X22541905Y-94360933D01*
X24018095Y-93360933D02*
X23541905Y-93360933D01*
X23541905Y-93360933D02*
X23494286Y-93837123D01*
X23494286Y-93837123D02*
X23541905Y-93789504D01*
X23541905Y-93789504D02*
X23637143Y-93741885D01*
X23637143Y-93741885D02*
X23875238Y-93741885D01*
X23875238Y-93741885D02*
X23970476Y-93789504D01*
X23970476Y-93789504D02*
X24018095Y-93837123D01*
X24018095Y-93837123D02*
X24065714Y-93932361D01*
X24065714Y-93932361D02*
X24065714Y-94170456D01*
X24065714Y-94170456D02*
X24018095Y-94265694D01*
X24018095Y-94265694D02*
X23970476Y-94313314D01*
X23970476Y-94313314D02*
X23875238Y-94360933D01*
X23875238Y-94360933D02*
X23637143Y-94360933D01*
X23637143Y-94360933D02*
X23541905Y-94313314D01*
X23541905Y-94313314D02*
X23494286Y-94265694D01*
X32140833Y-94360933D02*
X31807500Y-93884742D01*
X31569405Y-94360933D02*
X31569405Y-93360933D01*
X31569405Y-93360933D02*
X31950357Y-93360933D01*
X31950357Y-93360933D02*
X32045595Y-93408552D01*
X32045595Y-93408552D02*
X32093214Y-93456171D01*
X32093214Y-93456171D02*
X32140833Y-93551409D01*
X32140833Y-93551409D02*
X32140833Y-93694266D01*
X32140833Y-93694266D02*
X32093214Y-93789504D01*
X32093214Y-93789504D02*
X32045595Y-93837123D01*
X32045595Y-93837123D02*
X31950357Y-93884742D01*
X31950357Y-93884742D02*
X31569405Y-93884742D01*
X33045595Y-93360933D02*
X32569405Y-93360933D01*
X32569405Y-93360933D02*
X32521786Y-93837123D01*
X32521786Y-93837123D02*
X32569405Y-93789504D01*
X32569405Y-93789504D02*
X32664643Y-93741885D01*
X32664643Y-93741885D02*
X32902738Y-93741885D01*
X32902738Y-93741885D02*
X32997976Y-93789504D01*
X32997976Y-93789504D02*
X33045595Y-93837123D01*
X33045595Y-93837123D02*
X33093214Y-93932361D01*
X33093214Y-93932361D02*
X33093214Y-94170456D01*
X33093214Y-94170456D02*
X33045595Y-94265694D01*
X33045595Y-94265694D02*
X32997976Y-94313314D01*
X32997976Y-94313314D02*
X32902738Y-94360933D01*
X32902738Y-94360933D02*
X32664643Y-94360933D01*
X32664643Y-94360933D02*
X32569405Y-94313314D01*
X32569405Y-94313314D02*
X32521786Y-94265694D01*
X127289642Y-91464819D02*
X126956309Y-90988628D01*
X126718214Y-91464819D02*
X126718214Y-90464819D01*
X126718214Y-90464819D02*
X127099166Y-90464819D01*
X127099166Y-90464819D02*
X127194404Y-90512438D01*
X127194404Y-90512438D02*
X127242023Y-90560057D01*
X127242023Y-90560057D02*
X127289642Y-90655295D01*
X127289642Y-90655295D02*
X127289642Y-90798152D01*
X127289642Y-90798152D02*
X127242023Y-90893390D01*
X127242023Y-90893390D02*
X127194404Y-90941009D01*
X127194404Y-90941009D02*
X127099166Y-90988628D01*
X127099166Y-90988628D02*
X126718214Y-90988628D01*
X128242023Y-91464819D02*
X127670595Y-91464819D01*
X127956309Y-91464819D02*
X127956309Y-90464819D01*
X127956309Y-90464819D02*
X127861071Y-90607676D01*
X127861071Y-90607676D02*
X127765833Y-90702914D01*
X127765833Y-90702914D02*
X127670595Y-90750533D01*
X129146785Y-90464819D02*
X128670595Y-90464819D01*
X128670595Y-90464819D02*
X128622976Y-90941009D01*
X128622976Y-90941009D02*
X128670595Y-90893390D01*
X128670595Y-90893390D02*
X128765833Y-90845771D01*
X128765833Y-90845771D02*
X129003928Y-90845771D01*
X129003928Y-90845771D02*
X129099166Y-90893390D01*
X129099166Y-90893390D02*
X129146785Y-90941009D01*
X129146785Y-90941009D02*
X129194404Y-91036247D01*
X129194404Y-91036247D02*
X129194404Y-91274342D01*
X129194404Y-91274342D02*
X129146785Y-91369580D01*
X129146785Y-91369580D02*
X129099166Y-91417200D01*
X129099166Y-91417200D02*
X129003928Y-91464819D01*
X129003928Y-91464819D02*
X128765833Y-91464819D01*
X128765833Y-91464819D02*
X128670595Y-91417200D01*
X128670595Y-91417200D02*
X128622976Y-91369580D01*
D11*
X32562224Y-77086949D02*
X32052776Y-77086949D01*
X32562224Y-78131949D02*
X32052776Y-78131949D01*
X127677776Y-76963054D02*
X128187224Y-76963054D01*
X127677776Y-78008054D02*
X128187224Y-78008054D01*
X22480000Y-68433338D02*
X24940000Y-68433338D01*
X24940000Y-66963338D02*
X22480000Y-66963338D01*
X24940000Y-68433338D02*
X24940000Y-66963338D01*
X32562224Y-72131393D02*
X32052776Y-72131393D01*
X32562224Y-73176393D02*
X32052776Y-73176393D01*
X135300000Y-56811293D02*
X135300000Y-58281293D01*
X135300000Y-58281293D02*
X137760000Y-58281293D01*
X137760000Y-56811293D02*
X135300000Y-56811293D01*
X127677776Y-81947869D02*
X128187224Y-81947869D01*
X127677776Y-82992869D02*
X128187224Y-82992869D01*
X32562224Y-67175838D02*
X32052776Y-67175838D01*
X32562224Y-68220838D02*
X32052776Y-68220838D01*
X32562224Y-57264728D02*
X32052776Y-57264728D01*
X32562224Y-58309728D02*
X32052776Y-58309728D01*
X135300000Y-76750554D02*
X135300000Y-78220554D01*
X135300000Y-78220554D02*
X137760000Y-78220554D01*
X137760000Y-76750554D02*
X135300000Y-76750554D01*
X22480000Y-98166669D02*
X24940000Y-98166669D01*
X24940000Y-96696669D02*
X22480000Y-96696669D01*
X24940000Y-98166669D02*
X24940000Y-96696669D01*
X22480000Y-83300004D02*
X24940000Y-83300004D01*
X24940000Y-81830004D02*
X22480000Y-81830004D01*
X24940000Y-83300004D02*
X24940000Y-81830004D01*
X22480000Y-88255559D02*
X24940000Y-88255559D01*
X24940000Y-86785559D02*
X22480000Y-86785559D01*
X24940000Y-88255559D02*
X24940000Y-86785559D01*
X135300000Y-96689815D02*
X135300000Y-98159815D01*
X135300000Y-98159815D02*
X137760000Y-98159815D01*
X137760000Y-96689815D02*
X135300000Y-96689815D01*
X32562224Y-52309173D02*
X32052776Y-52309173D01*
X32562224Y-53354173D02*
X32052776Y-53354173D01*
X32562224Y-86998059D02*
X32052776Y-86998059D01*
X32562224Y-88043059D02*
X32052776Y-88043059D01*
X32562224Y-82042504D02*
X32052776Y-82042504D01*
X32562224Y-83087504D02*
X32052776Y-83087504D01*
X135300000Y-61796108D02*
X135300000Y-63266108D01*
X135300000Y-63266108D02*
X137760000Y-63266108D01*
X137760000Y-61796108D02*
X135300000Y-61796108D01*
X127677776Y-66993424D02*
X128187224Y-66993424D01*
X127677776Y-68038424D02*
X128187224Y-68038424D01*
X135300000Y-81735369D02*
X135300000Y-83205369D01*
X135300000Y-83205369D02*
X137760000Y-83205369D01*
X137760000Y-81735369D02*
X135300000Y-81735369D01*
X135300000Y-71765739D02*
X135300000Y-73235739D01*
X135300000Y-73235739D02*
X137760000Y-73235739D01*
X137760000Y-71765739D02*
X135300000Y-71765739D01*
X127705276Y-96902315D02*
X128214724Y-96902315D01*
X127705276Y-97947315D02*
X128214724Y-97947315D01*
X22480000Y-63477783D02*
X24940000Y-63477783D01*
X24940000Y-62007783D02*
X22480000Y-62007783D01*
X24940000Y-63477783D02*
X24940000Y-62007783D01*
X127677776Y-57023793D02*
X128187224Y-57023793D01*
X127677776Y-58068793D02*
X128187224Y-58068793D01*
X22480000Y-53566673D02*
X24940000Y-53566673D01*
X24940000Y-52096673D02*
X22480000Y-52096673D01*
X24940000Y-53566673D02*
X24940000Y-52096673D01*
X135300000Y-66780924D02*
X135300000Y-68250924D01*
X135300000Y-68250924D02*
X137760000Y-68250924D01*
X137760000Y-66780924D02*
X135300000Y-66780924D01*
X135300000Y-91705000D02*
X135300000Y-93175000D01*
X135300000Y-93175000D02*
X137760000Y-93175000D01*
X137760000Y-91705000D02*
X135300000Y-91705000D01*
X127677776Y-62008608D02*
X128187224Y-62008608D01*
X127677776Y-63053608D02*
X128187224Y-63053608D01*
X135300000Y-86720185D02*
X135300000Y-88190185D01*
X135300000Y-88190185D02*
X137760000Y-88190185D01*
X137760000Y-86720185D02*
X135300000Y-86720185D01*
X135300000Y-51826478D02*
X135300000Y-53296478D01*
X135300000Y-53296478D02*
X137760000Y-53296478D01*
X137760000Y-51826478D02*
X135300000Y-51826478D01*
X22480000Y-58522228D02*
X24940000Y-58522228D01*
X24940000Y-57052228D02*
X22480000Y-57052228D01*
X24940000Y-58522228D02*
X24940000Y-57052228D01*
X127677776Y-86932685D02*
X128187224Y-86932685D01*
X127677776Y-87977685D02*
X128187224Y-87977685D01*
X32537224Y-96909169D02*
X32027776Y-96909169D01*
X32537224Y-97954169D02*
X32027776Y-97954169D01*
X127677776Y-52038978D02*
X128187224Y-52038978D01*
X127677776Y-53083978D02*
X128187224Y-53083978D01*
X127677776Y-71978239D02*
X128187224Y-71978239D01*
X127677776Y-73023239D02*
X128187224Y-73023239D01*
X22480000Y-73388893D02*
X24940000Y-73388893D01*
X24940000Y-71918893D02*
X22480000Y-71918893D01*
X24940000Y-73388893D02*
X24940000Y-71918893D01*
X22480000Y-78344449D02*
X24940000Y-78344449D01*
X24940000Y-76874449D02*
X22480000Y-76874449D01*
X24940000Y-78344449D02*
X24940000Y-76874449D01*
X32562224Y-62220283D02*
X32052776Y-62220283D01*
X32562224Y-63265283D02*
X32052776Y-63265283D01*
X22480000Y-93211114D02*
X24940000Y-93211114D01*
X24940000Y-91741114D02*
X22480000Y-91741114D01*
X24940000Y-93211114D02*
X24940000Y-91741114D01*
X32562224Y-91953614D02*
X32052776Y-91953614D01*
X32562224Y-92998614D02*
X32052776Y-92998614D01*
X127677776Y-91917500D02*
X128187224Y-91917500D01*
X127677776Y-92962500D02*
X128187224Y-92962500D01*
%LPC*%
D12*
X33220000Y-77609449D03*
X31395000Y-77609449D03*
D13*
X127020000Y-77485554D03*
X128845000Y-77485554D03*
D14*
X24155000Y-67698338D03*
X22405000Y-67698338D03*
D12*
X33220000Y-72653893D03*
X31395000Y-72653893D03*
D15*
X136085000Y-57546293D03*
X137835000Y-57546293D03*
D13*
X127020000Y-82470369D03*
X128845000Y-82470369D03*
D12*
X33220000Y-67698338D03*
X31395000Y-67698338D03*
X33220000Y-57787228D03*
X31395000Y-57787228D03*
D15*
X136085000Y-77485554D03*
X137835000Y-77485554D03*
D14*
X24155000Y-97431669D03*
X22405000Y-97431669D03*
X24155000Y-82565004D03*
X22405000Y-82565004D03*
X24155000Y-87520559D03*
X22405000Y-87520559D03*
D15*
X136085000Y-97424815D03*
X137835000Y-97424815D03*
D12*
X33220000Y-52831673D03*
X31395000Y-52831673D03*
X33220000Y-87520559D03*
X31395000Y-87520559D03*
X33220000Y-82565004D03*
X31395000Y-82565004D03*
D15*
X136085000Y-62531108D03*
X137835000Y-62531108D03*
D13*
X127020000Y-67515924D03*
X128845000Y-67515924D03*
D15*
X136085000Y-82470369D03*
X137835000Y-82470369D03*
X136085000Y-72500739D03*
X137835000Y-72500739D03*
D13*
X127047500Y-97424815D03*
X128872500Y-97424815D03*
D14*
X24155000Y-62742783D03*
X22405000Y-62742783D03*
D16*
X32450000Y-127250000D03*
D13*
X127020000Y-57546293D03*
X128845000Y-57546293D03*
D14*
X24155000Y-52831673D03*
X22405000Y-52831673D03*
D15*
X136085000Y-67515924D03*
X137835000Y-67515924D03*
D16*
X32450000Y-22750000D03*
D15*
X136085000Y-92440000D03*
X137835000Y-92440000D03*
D13*
X127020000Y-62531108D03*
X128845000Y-62531108D03*
D15*
X136085000Y-87455185D03*
X137835000Y-87455185D03*
X136085000Y-52561478D03*
X137835000Y-52561478D03*
D14*
X24155000Y-57787228D03*
X22405000Y-57787228D03*
D16*
X127450000Y-22750000D03*
D13*
X127020000Y-87455185D03*
X128845000Y-87455185D03*
D12*
X33195000Y-97431669D03*
X31370000Y-97431669D03*
D13*
X127020000Y-52561478D03*
X128845000Y-52561478D03*
X127020000Y-72500739D03*
X128845000Y-72500739D03*
D14*
X24155000Y-72653893D03*
X22405000Y-72653893D03*
D16*
X127450000Y-127250000D03*
D14*
X24155000Y-77609449D03*
X22405000Y-77609449D03*
D12*
X33220000Y-62742783D03*
X31395000Y-62742783D03*
D14*
X24155000Y-92476114D03*
X22405000Y-92476114D03*
D12*
X33220000Y-92476114D03*
X31395000Y-92476114D03*
D13*
X127020000Y-92440000D03*
X128845000Y-92440000D03*
D17*
X82420000Y-95440000D03*
X77420000Y-95440000D03*
D18*
X103850000Y-68650000D03*
D19*
X59150000Y-68650000D03*
%LPD*%
M02*
