G04 #@! TF.GenerationSoftware,KiCad,Pcbnew,9.0.0*
G04 #@! TF.CreationDate,2025-03-25T13:13:44-05:00*
G04 #@! TF.ProjectId,Armor_Plate,41726d6f-725f-4506-9c61-74652e6b6963,rev?*
G04 #@! TF.SameCoordinates,Original*
G04 #@! TF.FileFunction,Soldermask,Top*
G04 #@! TF.FilePolarity,Negative*
%FSLAX46Y46*%
G04 Gerber Fmt 4.6, Leading zero omitted, Abs format (unit mm)*
G04 Created by KiCad (PCBNEW 9.0.0) date 2025-03-25 13:13:44*
%MOMM*%
%LPD*%
G01*
G04 APERTURE LIST*
G04 Aperture macros list*
%AMRoundRect*
0 Rectangle with rounded corners*
0 $1 Rounding radius*
0 $2 $3 $4 $5 $6 $7 $8 $9 X,Y pos of 4 corners*
0 Add a 4 corners polygon primitive as box body*
4,1,4,$2,$3,$4,$5,$6,$7,$8,$9,$2,$3,0*
0 Add four circle primitives for the rounded corners*
1,1,$1+$1,$2,$3*
1,1,$1+$1,$4,$5*
1,1,$1+$1,$6,$7*
1,1,$1+$1,$8,$9*
0 Add four rect primitives between the rounded corners*
20,1,$1+$1,$2,$3,$4,$5,0*
20,1,$1+$1,$4,$5,$6,$7,0*
20,1,$1+$1,$6,$7,$8,$9,0*
20,1,$1+$1,$8,$9,$2,$3,0*%
G04 Aperture macros list end*
%ADD10RoundRect,0.237500X0.250000X0.237500X-0.250000X0.237500X-0.250000X-0.237500X0.250000X-0.237500X0*%
%ADD11RoundRect,0.237500X-0.250000X-0.237500X0.250000X-0.237500X0.250000X0.237500X-0.250000X0.237500X0*%
%ADD12RoundRect,0.237500X0.287500X0.237500X-0.287500X0.237500X-0.287500X-0.237500X0.287500X-0.237500X0*%
%ADD13RoundRect,0.237500X-0.287500X-0.237500X0.287500X-0.237500X0.287500X0.237500X-0.287500X0.237500X0*%
%ADD14C,4.500000*%
%ADD15C,0.900000*%
%ADD16R,2.000000X2.000000*%
%ADD17C,2.000000*%
G04 APERTURE END LIST*
D10*
X33220000Y-77609449D03*
X31395000Y-77609449D03*
D11*
X127020000Y-77485554D03*
X128845000Y-77485554D03*
D12*
X24155000Y-67698338D03*
X22405000Y-67698338D03*
D10*
X33220000Y-72653893D03*
X31395000Y-72653893D03*
D13*
X136085000Y-57546293D03*
X137835000Y-57546293D03*
D11*
X127020000Y-82470369D03*
X128845000Y-82470369D03*
D10*
X33220000Y-67698338D03*
X31395000Y-67698338D03*
X33220000Y-57787228D03*
X31395000Y-57787228D03*
D13*
X136085000Y-77485554D03*
X137835000Y-77485554D03*
D12*
X24155000Y-97431669D03*
X22405000Y-97431669D03*
X24155000Y-82565004D03*
X22405000Y-82565004D03*
X24155000Y-87520559D03*
X22405000Y-87520559D03*
D13*
X136085000Y-97424815D03*
X137835000Y-97424815D03*
D10*
X33220000Y-52831673D03*
X31395000Y-52831673D03*
X33220000Y-87520559D03*
X31395000Y-87520559D03*
X33220000Y-82565004D03*
X31395000Y-82565004D03*
D13*
X136085000Y-62531108D03*
X137835000Y-62531108D03*
D11*
X127020000Y-67515924D03*
X128845000Y-67515924D03*
D13*
X136085000Y-82470369D03*
X137835000Y-82470369D03*
X136085000Y-72500739D03*
X137835000Y-72500739D03*
D11*
X127047500Y-97424815D03*
X128872500Y-97424815D03*
D12*
X24155000Y-62742783D03*
X22405000Y-62742783D03*
D14*
X32450000Y-127250000D03*
D11*
X127020000Y-57546293D03*
X128845000Y-57546293D03*
D12*
X24155000Y-52831673D03*
X22405000Y-52831673D03*
D13*
X136085000Y-67515924D03*
X137835000Y-67515924D03*
D14*
X32450000Y-22750000D03*
D13*
X136085000Y-92440000D03*
X137835000Y-92440000D03*
D11*
X127020000Y-62531108D03*
X128845000Y-62531108D03*
D13*
X136085000Y-87455185D03*
X137835000Y-87455185D03*
X136085000Y-52561478D03*
X137835000Y-52561478D03*
D12*
X24155000Y-57787228D03*
X22405000Y-57787228D03*
D14*
X127450000Y-22750000D03*
D11*
X127020000Y-87455185D03*
X128845000Y-87455185D03*
D10*
X33195000Y-97431669D03*
X31370000Y-97431669D03*
D11*
X127020000Y-52561478D03*
X128845000Y-52561478D03*
X127020000Y-72500739D03*
X128845000Y-72500739D03*
D12*
X24155000Y-72653893D03*
X22405000Y-72653893D03*
D14*
X127450000Y-127250000D03*
D12*
X24155000Y-77609449D03*
X22405000Y-77609449D03*
D10*
X33220000Y-62742783D03*
X31395000Y-62742783D03*
D12*
X24155000Y-92476114D03*
X22405000Y-92476114D03*
D10*
X33220000Y-92476114D03*
X31395000Y-92476114D03*
D11*
X127020000Y-92440000D03*
X128845000Y-92440000D03*
D15*
X82420000Y-95440000D03*
X77420000Y-95440000D03*
D16*
X103850000Y-68650000D03*
D17*
X59150000Y-68650000D03*
M02*
